<svg xmlns="http://www.w3.org/2000/svg" xmlns:xlink="http://www.w3.org/1999/xlink" width="1080" zoomAndPan="magnify" viewBox="0 0 810 1439.999935" height="1920" preserveAspectRatio="xMidYMid meet" version="1.0"><defs><clipPath id="8c8f97e3bf"><path d="M 164.171875 1042 L 305 1042 L 305 1194 L 164.171875 1194 Z M 164.171875 1042 " clip-rule="nonzero"/></clipPath><clipPath id="da51f586b3"><path d="M 484 1050 L 618.671875 1050 L 618.671875 1194.730469 L 484 1194.730469 Z M 484 1050 " clip-rule="nonzero"/></clipPath><clipPath id="1694d01481"><path d="M 284 733.480469 L 395 733.480469 L 395 857 L 284 857 Z M 284 733.480469 " clip-rule="nonzero"/></clipPath><clipPath id="089048dccf"><path d="M 518 923 L 576.996094 923 L 576.996094 964 L 518 964 Z M 518 923 " clip-rule="nonzero"/></clipPath><clipPath id="9db306411b"><path d="M 520 929 L 576.996094 929 L 576.996094 951 L 520 951 Z M 520 929 " clip-rule="nonzero"/></clipPath><clipPath id="3a07c016af"><path d="M 468 1074 L 509 1074 L 509 1131.730469 L 468 1131.730469 Z M 468 1074 " clip-rule="nonzero"/></clipPath><clipPath id="aaf72361a6"><path d="M 477 1076 L 503 1076 L 503 1131.730469 L 477 1131.730469 Z M 477 1076 " clip-rule="nonzero"/></clipPath><clipPath id="d89a608f2d"><path d="M 232.746094 902 L 290 902 L 290 945 L 232.746094 945 Z M 232.746094 902 " clip-rule="nonzero"/></clipPath></defs><g clip-path="url(#8c8f97e3bf)"><path fill="#fbfdfb" d="M 179.683594 1049.839844 C 181.453125 1050.261719 183.042969 1050.640625 184.632812 1051.023438 C 184.882812 1050.828125 185.273438 1050.679688 185.367188 1050.421875 C 185.898438 1048.976562 187.921875 1049.933594 188.46875 1048.375 C 188.839844 1047.320312 189.59375 1046.390625 190.214844 1045.421875 C 191.800781 1042.941406 193.746094 1042.160156 196.53125 1043.066406 C 197.765625 1043.464844 198.898438 1044.195312 200.1875 1044.824219 C 202.234375 1049.78125 201.109375 1054.894531 200.625 1060.246094 C 202.539062 1061.867188 203 1064.253906 202.835938 1066.769531 C 202.441406 1073.035156 202.007812 1079.292969 201.5 1085.554688 C 201.257812 1088.496094 201.867188 1091.472656 200.820312 1094.390625 C 200.367188 1095.652344 202.160156 1096.75 201.335938 1098.410156 C 200.710938 1099.671875 200.820312 1101.304688 200.644531 1102.773438 C 200.46875 1104.253906 200.367188 1105.738281 200.191406 1107.21875 C 200.035156 1108.523438 199.769531 1109.816406 199.632812 1111.121094 C 199.484375 1112.605469 199.414062 1114.105469 199.332031 1115.597656 C 199.25 1117.089844 199.207031 1118.589844 199.101562 1120.085938 C 198.804688 1124.398438 198.492188 1128.707031 198.171875 1133.019531 C 197.539062 1141.332031 198.125 1149.566406 199.742188 1157.730469 C 199.867188 1158.351562 200.21875 1158.929688 200.503906 1159.636719 C 206.886719 1159.054688 213.144531 1158.417969 219.40625 1157.921875 C 225.015625 1157.480469 230.558594 1156.261719 236.253906 1156.636719 C 238.878906 1156.808594 241.542969 1156.183594 244.195312 1156.0625 C 247.667969 1155.90625 251.15625 1156.023438 254.625 1155.792969 C 262.394531 1155.277344 270.144531 1154.46875 277.917969 1154.0625 C 284.394531 1153.730469 290.886719 1153.730469 297.371094 1153.746094 C 299.160156 1153.75 300.988281 1154.214844 302.722656 1154.71875 C 304.300781 1155.179688 305.15625 1157.15625 304.050781 1158.3125 C 302.332031 1160.109375 302.652344 1162.5625 301.375 1164.496094 C 300.234375 1166.222656 299.027344 1168.046875 298.785156 1170.308594 C 298.636719 1171.75 297.417969 1172.578125 296.015625 1172.835938 C 294.058594 1173.195312 292.078125 1173.441406 290.105469 1173.707031 C 287.65625 1174.035156 284.960938 1176.484375 285.191406 1179.015625 C 285.496094 1182.410156 283.320312 1183.488281 280.988281 1184.308594 C 278.175781 1185.300781 275.242188 1186.117188 272.296875 1186.535156 C 261.589844 1188.035156 250.859375 1189.351562 240.140625 1190.703125 C 233.867188 1191.496094 227.589844 1192.203125 221.320312 1192.984375 C 212.027344 1194.148438 202.707031 1193.9375 193.433594 1193.074219 C 190.058594 1192.761719 186.6875 1191.480469 184.414062 1188.441406 C 182.34375 1185.667969 180.140625 1183.003906 177.953125 1180.320312 C 177.71875 1180.03125 177.242188 1179.851562 176.84375 1179.789062 C 174.683594 1179.457031 173.917969 1177.796875 173.433594 1176.046875 C 172.863281 1173.972656 172.214844 1171.835938 172.167969 1169.71875 C 172.101562 1166.34375 170.472656 1163.828125 167.878906 1162.339844 C 165.265625 1160.835938 164.539062 1158.679688 164.476562 1156.183594 C 164.367188 1151.699219 164.347656 1147.191406 164.734375 1142.726562 C 165.570312 1133.292969 166.671875 1123.871094 167.660156 1114.445312 C 169.101562 1100.71875 170.542969 1086.996094 171.988281 1073.269531 C 172.769531 1065.835938 173.519531 1058.40625 174.351562 1050.984375 C 174.496094 1049.6875 174.804688 1048.34375 175.367188 1047.179688 C 175.632812 1046.632812 176.699219 1046.152344 177.359375 1046.210938 C 178.027344 1046.265625 178.851562 1046.890625 179.21875 1047.5 C 179.605469 1048.152344 179.546875 1049.074219 179.683594 1049.839844 Z M 169.253906 1145.863281 C 167.675781 1149.007812 167.675781 1149.007812 168.074219 1152.847656 C 168.472656 1150.496094 168.863281 1148.179688 169.253906 1145.863281 Z M 272.472656 1181.917969 C 272.273438 1181.554688 272.148438 1181.085938 271.992188 1181.074219 C 271.421875 1181.039062 270.820312 1181.101562 270.265625 1181.242188 C 270.128906 1181.277344 270 1181.980469 270.054688 1182.011719 C 270.4375 1182.214844 270.878906 1182.433594 271.289062 1182.414062 C 271.691406 1182.394531 272.078125 1182.097656 272.472656 1181.917969 Z M 281.132812 1179.835938 C 280.335938 1179.835938 279.644531 1179.785156 278.972656 1179.867188 C 278.785156 1179.890625 278.488281 1180.316406 278.511719 1180.523438 C 278.542969 1180.753906 278.863281 1181.082031 279.097656 1181.117188 C 279.917969 1181.253906 280.679688 1181.113281 281.132812 1179.835938 Z M 258.855469 1183.050781 C 258.292969 1182.652344 257.921875 1182.191406 257.570312 1182.199219 C 257.230469 1182.214844 256.914062 1182.726562 256.589844 1183.019531 C 256.933594 1183.347656 257.242188 1183.867188 257.632812 1183.933594 C 257.921875 1183.988281 258.320312 1183.460938 258.855469 1183.050781 Z M 249.886719 1183.277344 C 249.644531 1183.175781 249.394531 1182.964844 249.207031 1183.007812 C 249.027344 1183.050781 248.917969 1183.363281 248.777344 1183.554688 C 248.910156 1183.617188 249.070312 1183.769531 249.152344 1183.730469 C 249.402344 1183.628906 249.621094 1183.449219 249.886719 1183.277344 Z M 253.945312 1183.589844 C 253.90625 1183.464844 253.902344 1183.320312 253.824219 1183.230469 C 253.792969 1183.195312 253.617188 1183.277344 253.507812 1183.304688 C 253.542969 1183.429688 253.546875 1183.574219 253.625 1183.664062 C 253.65625 1183.707031 253.835938 1183.621094 253.945312 1183.589844 Z M 253.945312 1183.589844 " fill-opacity="1" fill-rule="nonzero"/></g><path fill="#fbfdfb" d="M 208.980469 762.378906 C 208.332031 769.800781 207.675781 776.882812 207.121094 783.980469 C 207.050781 784.886719 207.316406 785.957031 207.785156 786.730469 C 208.335938 787.644531 207.996094 788.085938 207.570312 788.871094 C 206.542969 790.777344 206.320312 792.15625 207.277344 793.921875 C 207.929688 795.121094 207.878906 796.367188 207.554688 797.1875 C 205.746094 801.78125 206.152344 806.632812 205.898438 811.332031 C 205.320312 821.929688 205.417969 832.5625 205.152344 843.179688 C 205.058594 847.003906 204.816406 850.828125 204.457031 854.632812 C 203.890625 860.574219 203.820312 860.570312 199.347656 864.652344 C 198.109375 864.246094 196.875 863.835938 195.351562 863.335938 C 194.746094 864.664062 194.144531 865.976562 193.488281 867.40625 C 193.027344 867.417969 192.496094 867.585938 192.144531 867.40625 C 190.433594 866.527344 188.949219 866.890625 187.328125 868.257812 C 187.113281 869.3125 186.847656 870.605469 186.589844 871.890625 C 184.917969 873.816406 182.949219 875.207031 180.3125 875.5 C 178.484375 875.703125 177.480469 875.296875 176.816406 873.503906 C 176.304688 872.136719 176.101562 870.65625 175.742188 869.136719 C 174.628906 868.125 173.183594 867.980469 171.675781 867.792969 C 169.101562 867.476562 167.707031 866.414062 167.910156 864.039062 C 168.292969 859.621094 166.78125 855.558594 166.332031 851.328125 C 165.796875 846.285156 165.648438 841.199219 165.347656 836.128906 C 165.316406 835.636719 165.28125 835.109375 165.410156 834.640625 C 166.378906 831.125 166.398438 827.445312 167.191406 823.933594 C 167.707031 821.636719 167.992188 819.292969 167.761719 817.132812 C 167.367188 813.414062 168.066406 809.878906 168.414062 806.269531 C 168.679688 803.511719 168.789062 800.738281 169.035156 797.980469 C 169.226562 795.84375 169.542969 793.71875 169.761719 791.585938 C 169.996094 789.289062 169.992188 786.957031 170.414062 784.699219 C 171.207031 780.476562 172.089844 776.289062 172.214844 771.957031 C 172.273438 770.003906 172.863281 768.0625 173.230469 766.121094 C 173.882812 762.699219 174.511719 759.277344 175.222656 755.867188 C 175.933594 752.421875 177.273438 749.222656 179.214844 746.277344 C 178.980469 742.710938 180.058594 739.421875 181.445312 736.226562 C 181.867188 735.253906 182.695312 734.453125 183.371094 733.527344 C 186.050781 734.890625 184.789062 737.765625 186.519531 739.535156 C 186.949219 739.453125 187.886719 739.539062 188.097656 739.191406 C 189.734375 736.484375 192.582031 736.441406 195.097656 736.195312 C 204.851562 735.226562 214.617188 734.359375 224.394531 733.738281 C 231.6875 733.277344 239.007812 733.265625 246.316406 733.035156 C 250.964844 732.890625 255.621094 732.6875 260.269531 732.550781 C 263.425781 732.464844 266.582031 732.441406 269.738281 732.394531 C 280.371094 732.25 291 731.707031 301.519531 734.195312 C 306.128906 735.285156 309.738281 737.285156 312.445312 741.265625 C 314.300781 743.988281 316.480469 746.476562 317.527344 749.664062 C 317.769531 750.386719 317.699219 751.210938 317.789062 752.125 C 314.914062 753.109375 312.25 752.089844 309.664062 752.4375 C 307.203125 752.777344 304.757812 753.257812 301.972656 753.726562 C 301.652344 754.292969 301.339844 755.335938 300.644531 755.902344 C 299.925781 756.492188 298.855469 756.734375 297.894531 756.917969 C 296.109375 757.261719 294.292969 757.679688 292.496094 757.65625 C 286.007812 757.589844 279.589844 758.359375 273.148438 758.921875 C 269.019531 759.28125 264.847656 759.234375 260.691406 759.308594 C 250.5625 759.492188 240.414062 758.945312 230.308594 759.898438 C 223.375 760.542969 216.476562 761.496094 208.980469 762.378906 Z M 208.980469 762.378906 " fill-opacity="1" fill-rule="nonzero"/><path fill="#fbfdfb" d="M 585.980469 758.96875 C 582.324219 759.328125 579.199219 759.625 576.074219 759.949219 C 571.613281 760.40625 567.15625 760.910156 562.691406 761.339844 C 557.730469 761.816406 552.761719 762.25 547.792969 762.667969 C 546.636719 762.761719 545.417969 762.921875 544.320312 762.667969 C 540.179688 761.707031 536.101562 762.558594 531.984375 762.71875 C 525.519531 762.96875 519.121094 764.234375 512.601562 763.71875 C 510.328125 763.535156 507.960938 764.050781 505.6875 764.515625 C 502.800781 765.109375 500.914062 763.972656 499.472656 761.605469 C 498.804688 760.515625 498.007812 759.507812 497.195312 758.355469 C 497.730469 757.585938 498.371094 756.820312 498.824219 755.960938 C 499.113281 755.414062 499.445312 754.515625 499.199219 754.132812 C 497.945312 752.15625 499.324219 750.257812 499.277344 748.335938 C 499.230469 746.382812 500.269531 744.550781 501.726562 743.050781 C 502.117188 742.648438 501.980469 741.785156 502.226562 741.191406 C 503.214844 738.789062 504.738281 736.941406 507.335938 736.09375 C 509.070312 735.523438 510.734375 734.753906 512.40625 734.019531 C 517.855469 731.640625 523.695312 731.214844 529.488281 730.894531 C 537.769531 730.4375 546.074219 730.40625 554.371094 730.15625 C 564.164062 729.863281 573.960938 729.535156 583.757812 729.230469 C 586.246094 729.152344 588.738281 729.125 591.234375 729.03125 C 592.792969 728.972656 593.675781 729.859375 594.425781 731.207031 C 593.9375 732.417969 593.417969 733.703125 592.730469 735.390625 C 595.082031 735.722656 597 735.992188 599.117188 736.296875 C 599.597656 735.332031 599.957031 734.441406 600.460938 733.640625 C 601.101562 732.625 602 731.957031 603.269531 731.792969 C 605.203125 731.535156 607.121094 731.1875 608.976562 730.886719 C 611.273438 733.359375 612.582031 736.078125 612.636719 739.40625 C 612.660156 740.519531 613.011719 741.734375 613.550781 742.714844 C 617.21875 749.414062 617.695312 751.671875 617.308594 758.664062 C 616.929688 765.621094 617.054688 772.617188 616.417969 779.542969 C 615.8125 786.152344 616.585938 792.839844 615.136719 799.386719 C 614.960938 800.183594 615.011719 801.050781 615.085938 801.875 C 615.574219 807.304688 615.414062 812.738281 615.199219 818.167969 C 615.179688 818.667969 615.105469 819.179688 615.1875 819.664062 C 616.027344 824.824219 615.3125 829.917969 614.613281 835.019531 C 614.480469 835.984375 614.613281 836.984375 614.648438 837.96875 C 614.683594 838.792969 615.105469 839.816406 614.761719 840.40625 C 612.914062 843.539062 613.710938 847.253906 612.386719 850.46875 C 611.214844 853.300781 611.097656 856.246094 611.058594 859.269531 C 611.027344 862.074219 610.535156 864.871094 610.308594 867.679688 C 610.210938 868.945312 609.527344 869.828125 608.699219 870.671875 C 607.117188 872.292969 605.660156 872.5625 603.988281 870.902344 C 602.738281 869.65625 601.519531 869.464844 599.976562 869.554688 C 599.359375 869.589844 598.34375 869.5 598.15625 869.136719 C 596.753906 866.390625 593.902344 866.605469 591.65625 866.277344 C 589.3125 865.9375 587.648438 865.078125 586.089844 863.46875 C 584.480469 861.804688 583.75 859.914062 583.875 857.605469 C 584.132812 852.792969 584.292969 847.976562 584.527344 843.164062 C 584.699219 839.683594 584.929688 836.199219 585.121094 832.714844 C 585.46875 826.414062 586.011719 820.117188 586.101562 813.8125 C 586.242188 803.832031 586.042969 793.855469 586.042969 783.878906 C 586.042969 776.570312 586.132812 769.261719 586.167969 761.953125 C 586.179688 761.144531 586.074219 760.339844 585.980469 758.96875 Z M 585.980469 758.96875 " fill-opacity="1" fill-rule="nonzero"/><g clip-path="url(#da51f586b3)"><path fill="#fbfdfb" d="M 489.835938 1183.207031 C 488.859375 1182.410156 487.972656 1181.683594 486.980469 1180.878906 C 487.375 1180 487.703125 1179.265625 488.03125 1178.53125 C 487.945312 1178.222656 487.957031 1177.832031 487.765625 1177.628906 C 486.40625 1176.171875 484.78125 1174.820312 485.46875 1172.492188 C 486.292969 1169.691406 487.640625 1167.105469 490.523438 1166.074219 C 494.578125 1164.625 498.574219 1162.96875 502.960938 1162.558594 C 506.75 1162.203125 510.542969 1161.671875 514.28125 1160.9375 C 526.882812 1158.476562 539.605469 1157.578125 552.425781 1157.367188 C 562.554688 1157.199219 572.675781 1156.546875 582.820312 1156.5625 C 586.28125 1156.570312 589.746094 1156.15625 593.597656 1155.914062 C 593.777344 1155.164062 594.199219 1154.25 594.171875 1153.351562 C 594.050781 1149.550781 593.800781 1145.746094 593.597656 1141.953125 C 593.527344 1140.640625 593.128906 1139.253906 593.421875 1138.035156 C 594.144531 1135.042969 593.417969 1132.152344 593.089844 1129.253906 C 592.65625 1125.4375 592.691406 1121.652344 592.875 1117.824219 C 593.074219 1113.695312 592.761719 1109.542969 592.910156 1105.414062 C 593.058594 1101.460938 592.246094 1097.511719 593.015625 1093.558594 C 593.167969 1092.765625 593.171875 1091.847656 592.921875 1091.09375 C 591.832031 1087.835938 592.128906 1084.570312 592.515625 1081.242188 C 592.703125 1079.628906 592.46875 1077.949219 592.28125 1076.316406 C 591.96875 1073.511719 591.644531 1070.78125 592.152344 1067.90625 C 592.566406 1065.523438 592.144531 1062.992188 592.050781 1060.535156 C 591.972656 1058.355469 592.109375 1056.339844 593.839844 1054.621094 C 594.605469 1053.859375 594.730469 1052.496094 595.296875 1051.484375 C 596.308594 1049.699219 598.113281 1049.726562 599.179688 1051.570312 C 599.664062 1052.402344 599.863281 1053.394531 600.1875 1054.316406 C 600.722656 1055.863281 600.910156 1057.609375 602.582031 1058.480469 C 602.9375 1058.511719 603.285156 1058.625 603.582031 1058.546875 C 604.835938 1058.21875 606.019531 1057.28125 607.394531 1058.027344 C 609.082031 1058.941406 610.226562 1060.402344 610.730469 1062.207031 C 612.394531 1068.101562 614.148438 1073.972656 614.496094 1080.160156 C 614.722656 1084.125 615.152344 1088.070312 615.242188 1092.058594 C 615.34375 1097.015625 616.078125 1101.960938 616.511719 1106.914062 C 616.8125 1110.382812 617.15625 1113.851562 617.296875 1117.328125 C 617.617188 1125.304688 617.789062 1133.277344 618.074219 1141.25 C 618.28125 1147.035156 618.296875 1152.808594 617.839844 1158.59375 C 617.648438 1161.0625 617.917969 1163.566406 617.917969 1166.058594 C 617.921875 1169.03125 618.046875 1172.023438 617.757812 1174.972656 C 617.636719 1176.148438 616.667969 1177.335938 615.851562 1178.316406 C 615.246094 1179.039062 614.253906 1179.441406 613.324219 1180.054688 C 612.511719 1179.320312 611.683594 1178.566406 610.972656 1177.925781 C 609.320312 1178.101562 609.261719 1179.582031 608.226562 1180.519531 C 607.167969 1180.664062 605.871094 1180.835938 604.601562 1181.007812 C 604.363281 1181.261719 604.039062 1181.460938 603.953125 1181.738281 C 603.691406 1182.523438 603.597656 1183.363281 603.3125 1184.136719 C 602.515625 1186.320312 599.628906 1188.042969 597.359375 1187.554688 C 596.191406 1187.304688 595.285156 1186.542969 595.136719 1185.175781 C 594.917969 1183.195312 594.707031 1181.210938 594.386719 1179.25 C 594.316406 1178.835938 593.8125 1178.222656 593.464844 1178.191406 C 592.902344 1178.132812 592.167969 1178.328125 591.738281 1178.691406 C 590.871094 1179.429688 590.207031 1180.421875 589.363281 1181.191406 C 586.992188 1183.355469 584.320312 1184.699219 581.011719 1185.210938 C 575.769531 1186.019531 570.597656 1187.316406 565.410156 1188.492188 C 555.703125 1190.699219 545.890625 1192.085938 535.949219 1192.667969 C 529.332031 1193.054688 522.734375 1193.792969 516.125 1194.328125 C 511.476562 1194.710938 506.835938 1194.632812 502.191406 1194.042969 C 497.902344 1193.496094 493.597656 1193.167969 489.316406 1192.59375 C 488.035156 1192.421875 486.730469 1191.945312 485.597656 1191.308594 C 483.53125 1190.148438 483.53125 1187.554688 485.75 1186.636719 C 487.582031 1185.855469 488.734375 1184.664062 489.835938 1183.207031 Z M 489.835938 1183.207031 " fill-opacity="1" fill-rule="nonzero"/></g><path fill="#fbfdfb" d="M 205.789062 1058.449219 L 205.730469 1057.972656 L 205.992188 1058.046875 Z M 205.789062 1058.449219 " fill-opacity="1" fill-rule="nonzero"/><path fill="#fbfdfb" d="M 203.882812 1073.128906 C 203.9375 1073.242188 204.035156 1073.367188 204.015625 1073.476562 C 204 1073.574219 203.851562 1073.648438 203.765625 1073.738281 C 203.804688 1073.527344 203.84375 1073.332031 203.882812 1073.128906 Z M 203.882812 1073.128906 " fill-opacity="1" fill-rule="nonzero"/><path fill="#fff2d5" d="M 316.980469 818.742188 C 316.164062 819.710938 315.339844 820.660156 314.492188 821.601562 C 310.371094 825.925781 305.113281 830.792969 299.03125 831.878906 C 301.0625 836.8125 299.136719 844.152344 297.65625 849.007812 C 297.035156 851.039062 296.324219 852.964844 295.460938 854.910156 C 292.914062 860.636719 287.210938 870.054688 280.851562 872.074219 C 284.707031 877.867188 282.839844 889.40625 281.128906 895.652344 C 279.394531 901.984375 274.988281 913.15625 268.738281 916.324219 C 270.488281 918.515625 271.238281 920.9375 271.835938 923.640625 C 272.917969 929.453125 272.773438 934.621094 272.058594 940.46875 C 271.203125 946.949219 268.4375 958.578125 262.652344 962.527344 C 267.738281 966.925781 269.398438 978.089844 269.589844 984.414062 C 269.761719 990.179688 269.167969 996.066406 266.742188 1001.355469 C 266.042969 1003.082031 265.328125 1004.492188 264.074219 1005.882812 C 269.53125 1009.121094 273.972656 1019.464844 275.882812 1025.269531 C 276.464844 1027.042969 276.953125 1028.757812 277.375 1030.578125 C 278.648438 1035.753906 280.023438 1041.679688 278.488281 1046.9375 C 282.277344 1047.019531 285.882812 1048.496094 289.335938 1049.933594 C 292.355469 1051.414062 295.503906 1053.554688 298.148438 1055.628906 C 303.152344 1059.558594 311.300781 1067.511719 311.832031 1074.269531 C 318.246094 1071.925781 328.945312 1076.121094 334.625 1079.078125 C 340.300781 1082.035156 349.871094 1088.394531 351.617188 1095 C 355.886719 1092.742188 360.976562 1093.003906 365.632812 1093.558594 C 368.957031 1094.050781 371.921875 1094.746094 375.136719 1095.710938 C 381.316406 1097.601562 392.203125 1102.113281 395.253906 1108.285156 C 400.308594 1103.859375 411.699219 1103.65625 418.011719 1104.203125 C 424.214844 1104.734375 434.9375 1106.777344 439.011719 1112.015625 C 441.183594 1108.996094 444.347656 1107.289062 447.675781 1105.8125 C 451.644531 1104.269531 455.28125 1103.300781 459.457031 1102.496094 C 465.515625 1101.367188 476.4375 1100.25 481.882812 1103.8125 C 482.464844 1101.863281 483.394531 1100.40625 484.621094 1098.804688 C 488.324219 1094.347656 492.636719 1091.113281 497.46875 1087.976562 C 503.132812 1084.460938 509.480469 1080.976562 516.222656 1080.296875 C 516.96875 1080.28125 517.613281 1080.308594 518.347656 1080.425781 C 517.21875 1074.199219 522.195312 1064.9375 525.40625 1059.855469 C 528.601562 1054.894531 531.902344 1050.492188 536.296875 1046.523438 C 537.957031 1045.3125 539.4375 1044.429688 541.441406 1043.910156 C 537.71875 1038.519531 539.035156 1028.054688 540.332031 1022.0625 C 542.019531 1014.804688 544.820312 1005.273438 550.714844 1000.285156 C 550.714844 1000.285156 550.792969 1000.222656 550.804688 1000.214844 C 545.957031 995.046875 544.40625 981.941406 544.226562 975.140625 C 544.054688 968.773438 544.707031 957.390625 549.679688 952.671875 C 544.15625 949.796875 540.25 940.722656 538.75 935.019531 C 538.464844 933.917969 538.226562 932.847656 538.023438 931.726562 C 536.785156 925.429688 535.324219 917.238281 538.160156 911.183594 C 532.011719 909.621094 525.15625 901.230469 521.894531 896.105469 C 520.269531 893.511719 519.023438 891.171875 517.917969 888.3125 C 515.960938 883.976562 513.902344 879.082031 514.554688 874.222656 C 508.191406 874.46875 499.179688 868.464844 494.765625 864.246094 C 494.320312 863.820312 493.890625 863.390625 493.46875 862.941406 C 490.226562 859.5625 487.492188 856.371094 485.652344 852.015625 C 483.984375 848.949219 482.125 843.929688 484.273438 840.652344 C 484.195312 840.613281 484.015625 840.519531 483.953125 840.46875 C 484.0625 841.128906 484.246094 841.570312 484.644531 842.117188 C 485.085938 842.679688 485.523438 843.011719 486.175781 843.304688 C 478.410156 846.085938 469.722656 843.792969 462.738281 839.957031 C 457.550781 836.886719 451.773438 830.96875 452.574219 824.390625 C 447.367188 827.074219 440.167969 824.863281 435.234375 822.5625 C 429.757812 820.007812 419.046875 813.628906 415.828125 808.558594 C 408.605469 812.429688 395.296875 811.34375 387.390625 810.847656 C 385.191406 810.726562 383.046875 810.5625 380.863281 810.289062 C 375.027344 809.371094 360.820312 804.742188 359.476562 798.261719 C 361.214844 789.890625 376.917969 788.164062 383.632812 788.832031 C 385.703125 789.097656 387.925781 789.464844 389.964844 789.902344 C 398.4375 791.511719 411.855469 794.324219 417.425781 801.660156 C 425.578125 797.613281 436.363281 799.53125 444.382812 802.953125 C 450.054688 805.601562 457.394531 811.492188 456.621094 818.574219 C 461.867188 815.945312 469.09375 818.574219 473.757812 821.335938 C 479.289062 824.753906 485.621094 829.847656 488.847656 835.570312 C 489.582031 835.894531 490.070312 836.261719 490.574219 836.886719 C 491.015625 837.484375 491.246094 838.007812 491.371094 838.742188 C 491.363281 838.78125 491.175781 838.863281 491.132812 838.886719 C 494.511719 838.890625 495.09375 838.902344 498.238281 840.609375 C 502.027344 842.105469 505.265625 844.691406 508.3125 847.339844 C 508.789062 847.722656 509.269531 848.179688 509.710938 848.605469 C 514.46875 853.148438 520.992188 862.621094 519.894531 869.574219 C 525.273438 869.738281 529.847656 873.363281 533.613281 876.867188 C 536.332031 879.21875 538.191406 881.480469 540.152344 884.492188 C 544.144531 891.183594 547.890625 900.636719 544.648438 908.339844 C 551.828125 910.859375 555.941406 919.242188 558.488281 925.847656 C 558.957031 927.074219 559.335938 928.246094 559.675781 929.515625 C 561.324219 935.785156 561.742188 946.71875 556.695312 951.6875 C 563.453125 955.363281 565.667969 967.683594 565.851562 974.558594 C 566.054688 982.019531 564.144531 995.746094 557.867188 1000.765625 C 557.882812 1000.785156 557.929688 1000.839844 557.945312 1000.855469 C 563.507812 1007.625 563.003906 1018.558594 561.480469 1026.644531 C 560.042969 1033.28125 555.453125 1044.5 548.054688 1046.453125 C 549.210938 1048.320312 549.59375 1050.109375 549.78125 1052.277344 C 549.613281 1059.460938 547.386719 1065.3125 543.699219 1071.414062 C 539.265625 1077.980469 532.105469 1085.902344 523.390625 1085.402344 C 523.496094 1086.183594 523.496094 1086.835938 523.429688 1087.617188 C 521.949219 1095.757812 515.671875 1101.789062 509.085938 1106.230469 C 503.121094 1109.859375 497.28125 1112.128906 490.21875 1112.015625 C 488.066406 1111.867188 486.269531 1111.53125 484.386719 1110.441406 C 481.238281 1118.476562 471.144531 1122.101562 463.417969 1123.765625 C 458.6875 1124.648438 454.183594 1124.75 449.425781 1124.054688 C 446.09375 1123.570312 441.460938 1121.789062 439.273438 1119.09375 C 434.96875 1125.289062 422.921875 1126.339844 416.152344 1125.757812 C 409.277344 1125.164062 397.34375 1121.972656 393.875 1115.234375 C 388.027344 1120.199219 375.464844 1118.4375 368.804688 1116.398438 C 365.238281 1115.277344 362.316406 1114.050781 359.058594 1112.214844 C 354.871094 1109.660156 350.527344 1106.394531 348.917969 1101.550781 C 342.378906 1105.277344 330.699219 1101.433594 324.628906 1098.269531 C 318.550781 1095.101562 308.695312 1087.726562 308.003906 1080.230469 C 300.914062 1082.707031 290.167969 1076.871094 284.785156 1072.648438 C 281.605469 1070.101562 279.207031 1067.722656 276.753906 1064.460938 C 273.949219 1060.585938 271.664062 1055.992188 272.75 1051.089844 C 265.933594 1050.320312 261.230469 1043.886719 258.105469 1038.378906 C 256.9375 1036.257812 256.109375 1034.335938 255.335938 1032.039062 C 253.046875 1024.304688 251.753906 1013.734375 257.058594 1006.882812 C 255.417969 1005.8125 254.371094 1004.542969 253.289062 1002.929688 C 249.429688 997.566406 248.277344 991.550781 247.960938 985.0625 C 247.757812 978.28125 249.511719 966.375 255.578125 962.125 C 249.894531 957.097656 249.703125 944.476562 250.609375 937.628906 C 251.519531 931.417969 252.972656 926.210938 256.152344 920.769531 C 257.675781 918.375 259.277344 916.3125 261.792969 914.914062 C 256.984375 909.105469 258.433594 896.605469 260.257812 889.941406 C 262.058594 883.363281 267.054688 872.078125 274.167969 869.726562 C 270.203125 863.613281 272.976562 852.222656 275.691406 846.121094 C 276.675781 843.9375 277.683594 842.078125 279.007812 840.078125 C 282.304688 835.128906 286.75 829.527344 292.917969 828.296875 C 290.78125 821.558594 294.070312 814.140625 297.617188 808.5 C 298.515625 807.207031 299.417969 806.015625 300.429688 804.808594 C 305.273438 799.476562 319.597656 787.1875 326.378906 796.316406 C 330.058594 802.742188 320.777344 814.234375 316.980469 818.742188 Z M 316.980469 818.742188 " fill-opacity="1" fill-rule="nonzero"/><g clip-path="url(#1694d01481)"><path fill="#f6c979" d="M 318.683594 783.679688 C 312.058594 786.808594 298.980469 792.035156 292.058594 795.320312 C 285.132812 798.605469 284.363281 799.945312 284.441406 800.914062 C 284.519531 801.882812 285.445312 802.476562 292.539062 803.335938 C 299.636719 804.199219 312.902344 805.324219 319.675781 806.257812 C 326.449219 807.195312 326.730469 807.945312 326.753906 808.976562 C 326.777344 810.011719 326.546875 811.324219 327.128906 819.402344 C 327.710938 827.480469 329.109375 842.324219 330.414062 849.738281 C 331.722656 857.148438 332.945312 857.132812 334.007812 856.316406 C 335.074219 855.5 335.980469 853.886719 338.347656 845.550781 C 340.714844 837.210938 344.542969 822.140625 346.796875 814.765625 C 349.054688 807.386719 349.742188 807.699219 357.015625 812.515625 C 364.289062 817.332031 378.148438 826.652344 385.628906 830.90625 C 393.105469 835.164062 394.207031 834.359375 394.550781 833.375 C 394.894531 832.390625 394.480469 831.230469 393.15625 828.449219 C 391.828125 825.667969 389.589844 821.269531 385.035156 815.226562 C 380.480469 809.183594 373.613281 801.5 370.128906 797.378906 C 366.644531 793.257812 366.546875 792.703125 370.378906 788.011719 C 374.210938 783.320312 381.976562 774.492188 386.566406 768.839844 C 391.15625 763.1875 392.570312 760.707031 393.328125 759.097656 C 394.082031 757.488281 394.179688 756.75 393.6875 756.253906 C 393.195312 755.757812 392.113281 755.503906 387.433594 756.84375 C 382.75 758.179688 374.464844 761.109375 367.34375 764.421875 C 360.222656 767.738281 354.265625 771.4375 350.972656 773.328125 C 347.679688 775.21875 347.050781 775.300781 342.621094 768.414062 C 338.1875 761.523438 329.949219 747.664062 325.316406 740.65625 C 320.683594 733.644531 319.660156 733.480469 319.015625 734.125 C 318.367188 734.773438 318.105469 736.230469 318.910156 742.539062 C 319.714844 748.847656 321.59375 760.003906 322.890625 766.804688 C 324.191406 773.605469 324.910156 776.054688 325.1875 777.792969 C 325.464844 779.527344 325.304688 780.554688 318.683594 783.679688 Z M 318.683594 783.679688 " fill-opacity="1" fill-rule="evenodd"/></g><path fill="#e5f3f4" d="M 504.527344 842.949219 C 504.40625 842.300781 503.984375 841.328125 503.105469 840.53125 C 502.226562 839.734375 500.894531 839.113281 499.40625 839.398438 C 497.917969 839.683594 496.273438 840.875 493.730469 843.308594 C 491.191406 845.742188 487.746094 849.421875 485.839844 851.710938 C 483.929688 854 483.550781 854.90625 483.835938 855.691406 C 484.117188 856.480469 485.066406 857.152344 486.003906 857.714844 C 486.941406 858.273438 487.871094 858.726562 489.113281 858.472656 C 490.359375 858.21875 491.917969 857.261719 494.148438 855.226562 C 496.378906 853.191406 499.277344 850.085938 501.082031 848.074219 C 502.882812 846.0625 503.585938 845.148438 504.027344 844.53125 C 504.46875 843.914062 504.648438 843.59375 504.527344 842.949219 Z M 504.527344 842.949219 " fill-opacity="1" fill-rule="evenodd"/><path fill="#6f9ec5" d="M 497.703125 847.289062 C 498.105469 845.917969 498.867188 843.585938 499.601562 839.261719 C 500.332031 834.933594 501.039062 828.613281 500.957031 824.277344 C 500.875 819.945312 500.007812 817.597656 498.925781 815.960938 C 497.84375 814.324219 496.550781 813.394531 495.167969 812.953125 C 493.78125 812.511719 492.308594 812.558594 491.28125 812.835938 C 490.253906 813.117188 489.675781 813.625 489.171875 813.863281 C 488.671875 814.105469 488.253906 814.078125 487.742188 813.847656 C 487.230469 813.617188 486.628906 813.183594 485.613281 813.070312 C 484.601562 812.957031 483.175781 813.160156 481.996094 813.613281 C 480.816406 814.0625 479.886719 814.765625 479.28125 815.351562 C 478.675781 815.941406 478.390625 816.414062 477.886719 816.546875 C 477.382812 816.675781 476.65625 816.464844 475.636719 816.539062 C 474.617188 816.613281 473.304688 816.972656 472.207031 817.5625 C 471.113281 818.15625 470.234375 818.984375 469.753906 819.882812 C 469.273438 820.785156 469.191406 821.757812 469.035156 822.277344 C 468.875 822.796875 468.640625 822.863281 468.140625 822.945312 C 467.640625 823.03125 466.878906 823.132812 466.117188 823.375 C 465.355469 823.621094 464.59375 824.003906 463.742188 824.863281 C 462.894531 825.71875 461.957031 827.050781 461.589844 828.230469 C 461.222656 829.414062 461.429688 830.445312 461.390625 831.1875 C 461.355469 831.925781 461.074219 832.367188 460.46875 832.796875 C 459.867188 833.226562 458.9375 833.644531 458.0625 834.566406 C 457.1875 835.488281 456.371094 836.910156 456.382812 838.339844 C 456.398438 839.765625 457.242188 841.203125 457.503906 842.144531 C 457.769531 843.082031 457.457031 843.523438 456.964844 843.96875 C 456.472656 844.414062 455.804688 844.863281 455.414062 845.542969 C 455.023438 846.222656 454.917969 847.132812 455.308594 848.117188 C 455.699219 849.105469 456.585938 850.164062 457.160156 850.847656 C 457.730469 851.53125 457.988281 851.84375 457.828125 852.519531 C 457.667969 853.199219 457.089844 854.242188 456.828125 855.21875 C 456.570312 856.195312 456.625 857.105469 457.289062 857.851562 C 457.953125 858.597656 459.222656 859.179688 460.523438 859.496094 C 461.820312 859.8125 463.152344 859.863281 469 858.386719 C 474.847656 856.910156 485.207031 853.910156 490.660156 852.171875 C 496.113281 850.433594 496.660156 849.957031 496.953125 849.511719 C 497.25 849.070312 497.296875 848.660156 497.703125 847.289062 Z M 497.703125 847.289062 " fill-opacity="1" fill-rule="evenodd"/><path fill="#e5f3f4" d="M 500.453125 833.03125 C 500.554688 832.113281 500.644531 831.183594 500.71875 830.269531 C 499.113281 830.769531 497.273438 831.46875 495.503906 832.226562 C 492.398438 833.554688 489.53125 835.0625 486.910156 837.847656 C 484.289062 840.636719 481.914062 844.703125 480.582031 849.414062 C 480.015625 851.425781 479.640625 853.550781 479.433594 855.535156 C 480.644531 855.1875 481.855469 854.835938 483.03125 854.488281 C 483.015625 854.03125 483.011719 853.558594 483.023438 853.0625 C 483.085938 850.453125 483.628906 847.253906 485.511719 843.980469 C 487.398438 840.710938 490.621094 837.371094 494.054688 835.421875 C 496.257812 834.171875 498.542969 833.496094 500.453125 833.03125 Z M 500.453125 833.03125 " fill-opacity="1" fill-rule="evenodd"/><path fill="#e5f3f4" d="M 500.957031 824.410156 L 500.957031 824.277344 C 500.945312 823.691406 500.917969 823.136719 500.878906 822.617188 C 499.039062 822.746094 496.671875 823.097656 494.191406 823.785156 C 490.5 824.808594 486.550781 826.570312 483.054688 828.945312 C 479.558594 831.316406 476.519531 834.296875 474.550781 837.664062 C 472.585938 841.03125 471.695312 844.785156 471.199219 848.792969 C 470.792969 852.0625 470.652344 855.507812 470.679688 857.953125 C 471.441406 857.753906 472.25 857.535156 473.09375 857.308594 C 473.085938 855.515625 473.054688 853.382812 473.191406 851.269531 C 473.429688 847.660156 474.15625 844.101562 475.695312 840.738281 C 477.238281 837.378906 479.589844 834.210938 482.652344 831.652344 C 485.71875 829.09375 489.488281 827.140625 493.097656 825.996094 C 496.058594 825.054688 498.910156 824.660156 500.957031 824.410156 Z M 500.957031 824.410156 " fill-opacity="1" fill-rule="evenodd"/><path fill="#e5f3f4" d="M 499.058594 816.167969 C 499.015625 816.097656 498.96875 816.027344 498.925781 815.960938 C 498.472656 815.277344 497.988281 814.71875 497.472656 814.265625 C 494.46875 814.820312 490.128906 815.882812 486.628906 817.023438 C 482.515625 818.363281 479.566406 819.816406 476.5625 821.992188 C 473.558594 824.167969 470.496094 827.070312 467.910156 830.550781 C 465.320312 834.035156 463.199219 838.101562 462.183594 841.484375 C 461.164062 844.867188 461.246094 847.570312 461.195312 850.796875 C 461.152344 853.710938 461 857.054688 461.316406 859.640625 C 461.957031 859.710938 462.761719 859.6875 464.097656 859.46875 C 463.640625 857.546875 463.152344 855.359375 462.910156 853.25 C 462.441406 849.226562 462.851562 845.480469 464.023438 841.859375 C 465.195312 838.242188 467.136719 834.753906 469.785156 831.476562 C 472.4375 828.195312 475.800781 825.128906 479.824219 822.832031 C 483.851562 820.535156 488.539062 819.011719 492.511719 817.890625 C 495.074219 817.164062 497.339844 816.609375 499.058594 816.167969 Z M 499.058594 816.167969 " fill-opacity="1" fill-rule="evenodd"/><path fill="#e5f3f4" d="M 564.355469 963.308594 C 564.667969 962.730469 564.953125 961.707031 564.773438 960.535156 C 564.59375 959.363281 563.945312 958.039062 562.609375 957.324219 C 561.273438 956.609375 559.246094 956.5 555.738281 956.792969 C 552.230469 957.082031 547.242188 957.773438 544.316406 958.351562 C 541.390625 958.925781 540.527344 959.390625 540.253906 960.183594 C 539.980469 960.972656 540.292969 962.089844 540.667969 963.117188 C 541.042969 964.144531 541.480469 965.082031 542.605469 965.667969 C 543.734375 966.253906 545.546875 966.488281 548.558594 966.3125 C 551.574219 966.136719 555.785156 965.546875 558.449219 965.121094 C 561.117188 964.691406 562.238281 964.425781 562.96875 964.222656 C 563.703125 964.023438 564.042969 963.886719 564.355469 963.308594 Z M 564.355469 963.308594 " fill-opacity="1" fill-rule="evenodd"/><g clip-path="url(#089048dccf)"><path fill="#6f9ec5" d="M 556.316406 962.386719 C 557.496094 961.574219 559.554688 960.242188 562.847656 957.339844 C 566.140625 954.441406 570.667969 949.972656 573.332031 946.554688 C 575.996094 943.136719 576.800781 940.765625 576.992188 938.8125 C 577.183594 936.859375 576.761719 935.324219 575.964844 934.109375 C 575.167969 932.894531 573.992188 932.003906 573.019531 931.574219 C 572.046875 931.144531 571.273438 931.171875 570.734375 931.046875 C 570.195312 930.917969 569.882812 930.632812 569.632812 930.132812 C 569.378906 929.628906 569.183594 928.914062 568.46875 928.1875 C 567.753906 927.460938 566.515625 926.71875 565.316406 926.328125 C 564.117188 925.941406 562.953125 925.898438 562.113281 925.972656 C 561.269531 926.046875 560.753906 926.238281 560.277344 926.023438 C 559.804688 925.808594 559.375 925.183594 558.535156 924.601562 C 557.695312 924.015625 556.449219 923.46875 555.222656 923.238281 C 554 923.007812 552.796875 923.097656 551.855469 923.496094 C 550.917969 923.890625 550.242188 924.597656 549.789062 924.902344 C 549.339844 925.207031 549.117188 925.109375 548.675781 924.859375 C 548.234375 924.609375 547.578125 924.210938 546.832031 923.921875 C 546.085938 923.628906 545.253906 923.449219 544.050781 923.582031 C 542.851562 923.710938 541.285156 924.152344 540.257812 924.839844 C 539.230469 925.527344 538.738281 926.460938 538.246094 927.011719 C 537.75 927.5625 537.253906 927.730469 536.515625 927.683594 C 535.773438 927.640625 534.789062 927.378906 533.53125 927.542969 C 532.273438 927.707031 530.742188 928.296875 529.851562 929.417969 C 528.960938 930.535156 528.710938 932.183594 528.328125 933.078125 C 527.941406 933.976562 527.421875 934.125 526.757812 934.160156 C 526.09375 934.195312 525.292969 934.121094 524.5625 934.402344 C 523.832031 934.6875 523.175781 935.328125 522.859375 936.339844 C 522.542969 937.351562 522.566406 938.730469 522.578125 939.625 C 522.59375 940.515625 522.597656 940.921875 522.046875 941.347656 C 521.496094 941.769531 520.386719 942.21875 519.570312 942.8125 C 518.753906 943.40625 518.226562 944.148438 518.269531 945.148438 C 518.316406 946.144531 518.933594 947.398438 519.746094 948.460938 C 520.554688 949.527344 521.558594 950.402344 527.03125 952.9375 C 532.503906 955.46875 542.441406 959.660156 547.773438 961.746094 C 553.105469 963.828125 553.828125 963.796875 554.335938 963.640625 C 554.847656 963.484375 555.140625 963.195312 556.316406 962.386719 Z M 556.316406 962.386719 " fill-opacity="1" fill-rule="evenodd"/></g><path fill="#e5f3f4" d="M 567.433594 953.039062 C 568.089844 952.386719 568.742188 951.722656 569.378906 951.058594 C 567.816406 950.4375 565.945312 949.820312 564.09375 949.296875 C 560.84375 948.375 557.667969 947.738281 553.875 948.253906 C 550.085938 948.769531 545.679688 950.433594 541.679688 953.257812 C 539.976562 954.460938 538.34375 955.878906 536.933594 957.289062 C 538.09375 957.78125 539.253906 958.269531 540.386719 958.742188 C 540.664062 958.378906 540.957031 958.007812 541.277344 957.628906 C 542.96875 955.640625 545.40625 953.496094 548.929688 952.140625 C 552.453125 950.785156 557.0625 950.222656 560.953125 950.867188 C 563.453125 951.28125 565.65625 952.195312 567.433594 953.039062 Z M 567.433594 953.039062 " fill-opacity="1" fill-rule="evenodd"/><path fill="#e5f3f4" d="M 573.253906 946.65625 L 573.332031 946.554688 C 573.695312 946.089844 574.023438 945.644531 574.320312 945.214844 C 572.808594 944.15625 570.75 942.941406 568.386719 941.910156 C 564.875 940.382812 560.695312 939.265625 556.488281 938.910156 C 552.277344 938.550781 548.039062 938.953125 544.390625 940.332031 C 540.742188 941.710938 537.6875 944.0625 534.78125 946.867188 C 532.40625 949.152344 530.128906 951.738281 528.613281 953.65625 C 529.328125 953.980469 530.09375 954.320312 530.890625 954.675781 C 532.011719 953.277344 533.332031 951.601562 534.769531 950.046875 C 537.226562 947.390625 540.03125 945.085938 543.34375 943.441406 C 546.65625 941.800781 550.480469 940.820312 554.472656 940.761719 C 558.460938 940.699219 562.621094 941.558594 566.144531 942.941406 C 569.039062 944.074219 571.503906 945.5625 573.253906 946.65625 Z M 573.253906 946.65625 " fill-opacity="1" fill-rule="evenodd"/><g clip-path="url(#9db306411b)"><path fill="#e5f3f4" d="M 576.964844 939.058594 C 576.976562 938.972656 576.984375 938.894531 576.992188 938.8125 C 577.070312 938 577.042969 937.257812 576.929688 936.582031 C 574.246094 935.121094 570.207031 933.214844 566.769531 931.898438 C 562.730469 930.351562 559.523438 929.621094 555.820312 929.421875 C 552.113281 929.21875 547.910156 929.546875 543.707031 930.625 C 539.5 931.699219 535.296875 933.523438 532.375 935.511719 C 529.453125 937.5 527.816406 939.652344 525.746094 942.125 C 523.875 944.363281 521.65625 946.863281 520.273438 949.074219 C 520.722656 949.53125 521.367188 950.019531 522.539062 950.691406 C 523.394531 948.910156 524.394531 946.902344 525.53125 945.109375 C 527.703125 941.691406 530.378906 939.035156 533.570312 936.964844 C 536.757812 934.890625 540.460938 933.402344 544.585938 932.523438 C 548.707031 931.644531 553.253906 931.378906 557.828125 932.128906 C 562.398438 932.878906 567 934.644531 570.792969 936.273438 C 573.242188 937.324219 575.351562 938.320312 576.964844 939.058594 Z M 576.964844 939.058594 " fill-opacity="1" fill-rule="evenodd"/></g><path fill="#e5f3f4" d="M 469.9375 1122.253906 C 470.550781 1122.492188 471.605469 1122.644531 472.742188 1122.316406 C 473.882812 1121.988281 475.113281 1121.179688 475.652344 1119.765625 C 476.191406 1118.347656 476.042969 1116.324219 475.3125 1112.882812 C 474.578125 1109.4375 473.261719 1104.578125 472.316406 1101.75 C 471.375 1098.917969 470.804688 1098.121094 469.984375 1097.949219 C 469.164062 1097.777344 468.09375 1098.230469 467.125 1098.734375 C 466.152344 1099.234375 465.28125 1099.789062 464.84375 1100.980469 C 464.40625 1102.171875 464.398438 1104 464.957031 1106.96875 C 465.511719 1109.933594 466.632812 1114.035156 467.394531 1116.625 C 468.15625 1119.214844 468.5625 1120.296875 468.855469 1120.996094 C 469.148438 1121.695312 469.324219 1122.015625 469.9375 1122.253906 Z M 469.9375 1122.253906 " fill-opacity="1" fill-rule="evenodd"/><g clip-path="url(#3a07c016af)"><path fill="#6f9ec5" d="M 469.835938 1114.164062 C 470.789062 1115.230469 472.371094 1117.105469 475.667969 1120.003906 C 478.960938 1122.902344 483.96875 1126.824219 487.695312 1129.035156 C 491.425781 1131.246094 493.878906 1131.742188 495.839844 1131.683594 C 497.800781 1131.625 499.269531 1131.011719 500.375 1130.066406 C 501.476562 1129.125 502.210938 1127.84375 502.515625 1126.824219 C 502.820312 1125.804688 502.691406 1125.042969 502.75 1124.492188 C 502.808594 1123.9375 503.054688 1123.59375 503.519531 1123.28125 C 503.984375 1122.96875 504.667969 1122.683594 505.296875 1121.882812 C 505.929688 1121.078125 506.507812 1119.761719 506.742188 1118.519531 C 506.976562 1117.28125 506.867188 1116.121094 506.6875 1115.296875 C 506.507812 1114.472656 506.253906 1113.980469 506.40625 1113.484375 C 506.5625 1112.984375 507.121094 1112.480469 507.597656 1111.574219 C 508.070312 1110.667969 508.457031 1109.363281 508.527344 1108.117188 C 508.601562 1106.875 508.359375 1105.691406 507.847656 1104.808594 C 507.332031 1103.925781 506.546875 1103.347656 506.1875 1102.9375 C 505.828125 1102.53125 505.898438 1102.292969 506.089844 1101.824219 C 506.28125 1101.359375 506.59375 1100.65625 506.789062 1099.878906 C 506.980469 1099.101562 507.054688 1098.253906 506.773438 1097.078125 C 506.492188 1095.90625 505.851562 1094.40625 505.039062 1093.476562 C 504.226562 1092.542969 503.242188 1092.171875 502.632812 1091.753906 C 502.023438 1091.332031 501.792969 1090.863281 501.746094 1090.121094 C 501.699219 1089.378906 501.832031 1088.371094 501.507812 1087.144531 C 501.183594 1085.917969 500.40625 1084.472656 499.183594 1083.730469 C 497.960938 1082.992188 496.296875 1082.953125 495.355469 1082.683594 C 494.417969 1082.417969 494.207031 1081.917969 494.085938 1081.265625 C 493.964844 1080.613281 493.941406 1079.804688 493.566406 1079.117188 C 493.191406 1078.429688 492.472656 1077.859375 491.429688 1077.671875 C 490.386719 1077.488281 489.019531 1077.683594 488.136719 1077.8125 C 487.25 1077.9375 486.851562 1077.992188 486.359375 1077.5 C 485.867188 1077.007812 485.285156 1075.96875 484.59375 1075.234375 C 483.898438 1074.496094 483.09375 1074.066406 482.109375 1074.238281 C 481.128906 1074.410156 479.964844 1075.183594 479.011719 1076.121094 C 478.058594 1077.0625 477.316406 1078.167969 475.496094 1083.917969 C 473.675781 1089.664062 470.777344 1100.054688 469.386719 1105.609375 C 468 1111.160156 468.117188 1111.875 468.339844 1112.359375 C 468.558594 1112.84375 468.882812 1113.101562 469.835938 1114.164062 Z M 469.835938 1114.164062 " fill-opacity="1" fill-rule="evenodd"/></g><path fill="#e5f3f4" d="M 480.515625 1124.003906 C 481.246094 1124.574219 481.988281 1125.136719 482.726562 1125.683594 C 483.144531 1124.054688 483.519531 1122.121094 483.804688 1120.21875 C 484.304688 1116.878906 484.535156 1113.648438 483.542969 1109.949219 C 482.554688 1106.253906 480.34375 1102.097656 477.03125 1098.488281 C 475.621094 1096.949219 474.011719 1095.511719 472.433594 1094.292969 C 472.09375 1095.503906 471.753906 1096.71875 471.429688 1097.902344 C 471.828125 1098.128906 472.234375 1098.371094 472.648438 1098.644531 C 474.832031 1100.070312 477.269531 1102.214844 479.0625 1105.539062 C 480.851562 1108.859375 481.996094 1113.359375 481.847656 1117.304688 C 481.753906 1119.832031 481.128906 1122.136719 480.515625 1124.003906 Z M 480.515625 1124.003906 " fill-opacity="1" fill-rule="evenodd"/><path fill="#e5f3f4" d="M 487.585938 1128.96875 L 487.695312 1129.035156 C 488.203125 1129.335938 488.6875 1129.605469 489.148438 1129.84375 C 490.007812 1128.210938 490.953125 1126.011719 491.675781 1123.542969 C 492.746094 1119.863281 493.324219 1115.578125 493.144531 1111.355469 C 492.964844 1107.136719 492.027344 1102.980469 490.199219 1099.539062 C 488.371094 1096.09375 485.648438 1093.363281 482.5 1090.832031 C 479.929688 1088.769531 477.074219 1086.839844 474.980469 1085.574219 C 474.75 1086.328125 474.507812 1087.128906 474.261719 1087.964844 C 475.789062 1088.898438 477.617188 1089.996094 479.34375 1091.226562 C 482.289062 1093.324219 484.933594 1095.816406 486.980469 1098.894531 C 489.03125 1101.972656 490.488281 1105.640625 491.050781 1109.589844 C 491.617188 1113.542969 491.292969 1117.777344 490.371094 1121.449219 C 489.609375 1124.460938 488.449219 1127.09375 487.585938 1128.96875 Z M 487.585938 1128.96875 " fill-opacity="1" fill-rule="evenodd"/><g clip-path="url(#aaf72361a6)"><path fill="#e5f3f4" d="M 495.59375 1131.6875 C 495.675781 1131.6875 495.757812 1131.683594 495.839844 1131.683594 C 496.65625 1131.660156 497.386719 1131.539062 498.042969 1131.339844 C 499.152344 1128.492188 500.535156 1124.242188 501.402344 1120.664062 C 502.425781 1116.460938 502.742188 1113.191406 502.472656 1109.492188 C 502.199219 1105.792969 501.34375 1101.664062 499.742188 1097.628906 C 498.144531 1093.59375 495.800781 1089.652344 493.457031 1087.007812 C 491.113281 1084.363281 488.773438 1083.007812 486.054688 1081.273438 C 483.601562 1079.699219 480.839844 1077.8125 478.46875 1076.722656 C 478.074219 1077.226562 477.667969 1077.925781 477.15625 1079.175781 C 479.03125 1079.800781 481.144531 1080.535156 483.066406 1081.4375 C 486.738281 1083.15625 489.707031 1085.476562 492.167969 1088.375 C 494.628906 1091.277344 496.578125 1094.761719 497.972656 1098.738281 C 499.367188 1102.71875 500.207031 1107.195312 500.042969 1111.824219 C 499.878906 1116.457031 498.707031 1121.242188 497.574219 1125.214844 C 496.839844 1127.773438 496.121094 1129.992188 495.59375 1131.6875 Z M 495.59375 1131.6875 " fill-opacity="1" fill-rule="evenodd"/></g><path fill="#e5f3f4" d="M 294.554688 1079.507812 C 294.789062 1080.125 295.375 1081.011719 296.378906 1081.640625 C 297.382812 1082.273438 298.804688 1082.652344 300.21875 1082.113281 C 301.636719 1081.570312 303.046875 1080.113281 305.125 1077.273438 C 307.203125 1074.429688 309.953125 1070.210938 311.433594 1067.621094 C 312.914062 1065.03125 313.128906 1064.078125 312.710938 1063.351562 C 312.292969 1062.625 311.242188 1062.128906 310.222656 1061.738281 C 309.199219 1061.351562 308.207031 1061.070312 307.027344 1061.535156 C 305.84375 1062.003906 304.476562 1063.21875 302.636719 1065.609375 C 300.796875 1068 298.480469 1071.566406 297.058594 1073.863281 C 295.636719 1076.15625 295.101562 1077.179688 294.773438 1077.863281 C 294.445312 1078.546875 294.324219 1078.894531 294.554688 1079.507812 Z M 294.554688 1079.507812 " fill-opacity="1" fill-rule="evenodd"/><path fill="#6f9ec5" d="M 300.519531 1074.042969 C 300.363281 1075.464844 300.019531 1077.894531 300.050781 1082.28125 C 300.085938 1086.667969 300.496094 1093.015625 301.332031 1097.269531 C 302.167969 1101.523438 303.433594 1103.683594 304.78125 1105.105469 C 306.132812 1106.53125 307.566406 1107.21875 309.007812 1107.410156 C 310.445312 1107.605469 311.890625 1107.300781 312.851562 1106.847656 C 313.816406 1106.394531 314.296875 1105.792969 314.75 1105.46875 C 315.199219 1105.144531 315.621094 1105.097656 316.164062 1105.234375 C 316.707031 1105.371094 317.375 1105.695312 318.394531 1105.628906 C 319.410156 1105.566406 320.78125 1105.117188 321.859375 1104.464844 C 322.941406 1103.816406 323.734375 1102.964844 324.230469 1102.277344 C 324.722656 1101.59375 324.921875 1101.078125 325.394531 1100.859375 C 325.867188 1100.644531 326.621094 1100.726562 327.609375 1100.476562 C 328.601562 1100.226562 329.832031 1099.640625 330.808594 1098.867188 C 331.785156 1098.09375 332.507812 1097.125 332.824219 1096.15625 C 333.136719 1095.183594 333.046875 1094.210938 333.113281 1093.671875 C 333.179688 1093.132812 333.398438 1093.027344 333.875 1092.855469 C 334.351562 1092.6875 335.085938 1092.453125 335.792969 1092.082031 C 336.5 1091.707031 337.183594 1091.195312 337.871094 1090.203125 C 338.558594 1089.210938 339.25 1087.738281 339.40625 1086.511719 C 339.558594 1085.285156 339.175781 1084.300781 339.085938 1083.566406 C 338.992188 1082.832031 339.191406 1082.347656 339.710938 1081.820312 C 340.230469 1081.289062 341.074219 1080.714844 341.773438 1079.65625 C 342.472656 1078.597656 343.03125 1077.054688 342.769531 1075.652344 C 342.507812 1074.246094 341.425781 1072.980469 341 1072.101562 C 340.574219 1071.222656 340.804688 1070.730469 341.210938 1070.207031 C 341.617188 1069.683594 342.203125 1069.125 342.464844 1068.390625 C 342.730469 1067.652344 342.675781 1066.734375 342.121094 1065.832031 C 341.5625 1064.929688 340.503906 1064.042969 339.820312 1063.46875 C 339.140625 1062.894531 338.832031 1062.632812 338.871094 1061.9375 C 338.910156 1061.242188 339.296875 1060.117188 339.382812 1059.109375 C 339.472656 1058.101562 339.253906 1057.214844 338.472656 1056.597656 C 337.691406 1055.976562 336.339844 1055.625 335.003906 1055.539062 C 333.667969 1055.453125 332.347656 1055.640625 326.847656 1058.113281 C 321.347656 1060.585938 311.667969 1065.347656 306.601562 1068.007812 C 301.539062 1070.671875 301.085938 1071.238281 300.871094 1071.722656 C 300.65625 1072.210938 300.679688 1072.621094 300.519531 1074.042969 Z M 300.519531 1074.042969 " fill-opacity="1" fill-rule="evenodd"/><path fill="#e5f3f4" d="M 300.296875 1088.566406 C 300.359375 1089.484375 300.433594 1090.414062 300.519531 1091.332031 C 302.011719 1090.558594 303.707031 1089.546875 305.3125 1088.492188 C 308.136719 1086.640625 310.699219 1084.660156 312.796875 1081.457031 C 314.890625 1078.257812 316.519531 1073.835938 317.007812 1068.964844 C 317.214844 1066.886719 317.214844 1064.730469 317.070312 1062.738281 C 315.941406 1063.292969 314.808594 1063.851562 313.710938 1064.394531 C 313.804688 1064.84375 313.894531 1065.308594 313.96875 1065.796875 C 314.363281 1068.378906 314.386719 1071.625 313.101562 1075.175781 C 311.816406 1078.722656 309.222656 1082.574219 306.183594 1085.09375 C 304.234375 1086.707031 302.101562 1087.773438 300.296875 1088.566406 Z M 300.296875 1088.566406 " fill-opacity="1" fill-rule="evenodd"/><path fill="#e5f3f4" d="M 301.304688 1097.140625 L 301.332031 1097.269531 C 301.445312 1097.847656 301.566406 1098.386719 301.695312 1098.890625 C 303.484375 1098.445312 305.753906 1097.683594 308.078125 1096.574219 C 311.535156 1094.925781 315.117188 1092.5 318.144531 1089.554688 C 321.171875 1086.609375 323.648438 1083.140625 324.996094 1079.484375 C 326.34375 1075.824219 326.566406 1071.976562 326.355469 1067.941406 C 326.183594 1064.648438 325.722656 1061.234375 325.269531 1058.832031 C 324.554688 1059.160156 323.796875 1059.515625 323.003906 1059.886719 C 323.328125 1061.648438 323.726562 1063.742188 323.960938 1065.851562 C 324.355469 1069.445312 324.261719 1073.074219 323.332031 1076.65625 C 322.402344 1080.234375 320.636719 1083.761719 318.066406 1086.816406 C 315.496094 1089.871094 312.121094 1092.453125 308.769531 1094.207031 C 306.015625 1095.648438 303.28125 1096.535156 301.304688 1097.140625 Z M 301.304688 1097.140625 " fill-opacity="1" fill-rule="evenodd"/><path fill="#e5f3f4" d="M 304.613281 1104.925781 C 304.671875 1104.988281 304.726562 1105.046875 304.78125 1105.105469 C 305.34375 1105.699219 305.921875 1106.164062 306.507812 1106.519531 C 309.367188 1105.449219 313.457031 1103.648438 316.707031 1101.914062 C 320.519531 1099.875 323.171875 1097.933594 325.75 1095.265625 C 328.328125 1092.597656 330.835938 1089.210938 332.777344 1085.328125 C 334.71875 1081.445312 336.097656 1077.074219 336.511719 1073.5625 C 336.921875 1070.054688 336.371094 1067.40625 335.855469 1064.222656 C 335.390625 1061.34375 334.960938 1058.027344 334.195312 1055.535156 C 333.554688 1055.578125 332.761719 1055.742188 331.488281 1056.191406 C 332.273438 1058.003906 333.132812 1060.070312 333.742188 1062.105469 C 334.902344 1065.988281 335.15625 1069.746094 334.628906 1073.515625 C 334.105469 1077.28125 332.804688 1081.054688 330.769531 1084.746094 C 328.730469 1088.4375 325.953125 1092.046875 322.390625 1095.007812 C 318.828125 1097.972656 314.476562 1100.289062 310.761719 1102.089844 C 308.363281 1103.246094 306.230469 1104.191406 304.613281 1104.925781 Z M 304.613281 1104.925781 " fill-opacity="1" fill-rule="evenodd"/><path fill="#e5f3f4" d="M 256.957031 897.96875 C 256.40625 898.332031 255.671875 899.101562 255.277344 900.21875 C 254.882812 901.339844 254.828125 902.808594 255.667969 904.070312 C 256.511719 905.328125 258.246094 906.382812 261.476562 907.78125 C 264.703125 909.183594 269.429688 910.929688 272.28125 911.800781 C 275.132812 912.675781 276.113281 912.671875 276.726562 912.105469 C 277.34375 911.535156 277.59375 910.402344 277.75 909.320312 C 277.902344 908.238281 277.957031 907.207031 277.242188 906.160156 C 276.527344 905.109375 275.039062 904.042969 272.300781 902.777344 C 269.558594 901.511719 265.570312 900.042969 263.015625 899.164062 C 260.464844 898.28125 259.347656 897.988281 258.609375 897.820312 C 257.871094 897.648438 257.507812 897.609375 256.957031 897.96875 Z M 256.957031 897.96875 " fill-opacity="1" fill-rule="evenodd"/><g clip-path="url(#d89a608f2d)"><path fill="#6f9ec5" d="M 263.605469 902.578125 C 262.183594 902.738281 259.738281 902.941406 255.46875 903.941406 C 251.195312 904.945312 245.09375 906.746094 241.132812 908.503906 C 237.167969 910.261719 235.34375 911.96875 234.253906 913.601562 C 233.164062 915.234375 232.808594 916.785156 232.9375 918.230469 C 233.070312 919.679688 233.683594 921.015625 234.335938 921.855469 C 234.992188 922.695312 235.6875 923.035156 236.101562 923.402344 C 236.519531 923.769531 236.65625 924.167969 236.644531 924.730469 C 236.628906 925.289062 236.464844 926.011719 236.75 926.992188 C 237.039062 927.96875 237.777344 929.207031 238.652344 930.117188 C 239.527344 931.027344 240.53125 931.613281 241.308594 931.941406 C 242.085938 932.273438 242.632812 932.351562 242.949219 932.765625 C 243.265625 933.179688 243.351562 933.929688 243.816406 934.84375 C 244.277344 935.753906 245.117188 936.824219 246.089844 937.605469 C 247.0625 938.386719 248.164062 938.875 249.179688 938.96875 C 250.195312 939.0625 251.125 938.757812 251.667969 938.703125 C 252.207031 938.648438 252.359375 938.839844 252.628906 939.269531 C 252.898438 939.695312 253.289062 940.359375 253.808594 940.964844 C 254.332031 941.574219 254.980469 942.128906 256.101562 942.578125 C 257.21875 943.03125 258.808594 943.378906 260.039062 943.257812 C 261.273438 943.136719 262.144531 942.546875 262.839844 942.292969 C 263.535156 942.042969 264.050781 942.128906 264.683594 942.519531 C 265.316406 942.910156 266.0625 943.601562 267.246094 944.050781 C 268.433594 944.5 270.0625 944.703125 271.375 944.136719 C 272.6875 943.570312 273.683594 942.238281 274.445312 941.628906 C 275.210938 941.019531 275.738281 941.132812 276.339844 941.414062 C 276.941406 941.695312 277.613281 942.140625 278.390625 942.238281 C 279.167969 942.332031 280.050781 942.078125 280.808594 941.335938 C 281.5625 940.59375 282.195312 939.363281 282.605469 938.570312 C 283.015625 937.777344 283.203125 937.417969 283.886719 937.304688 C 284.574219 937.191406 285.757812 937.320312 286.761719 937.179688 C 287.761719 937.042969 288.578125 936.636719 289.011719 935.734375 C 289.441406 934.835938 289.488281 933.4375 289.273438 932.117188 C 289.0625 930.796875 288.589844 929.550781 284.960938 924.734375 C 281.335938 919.917969 274.550781 911.53125 270.835938 907.175781 C 267.117188 902.824219 266.46875 902.507812 265.945312 902.40625 C 265.421875 902.304688 265.027344 902.421875 263.605469 902.578125 Z M 263.605469 902.578125 " fill-opacity="1" fill-rule="evenodd"/></g><path fill="#e5f3f4" d="M 249.394531 905.570312 C 248.507812 905.835938 247.621094 906.113281 246.746094 906.398438 C 247.828125 907.683594 249.1875 909.113281 250.570312 910.445312 C 253 912.792969 255.503906 914.855469 259.085938 916.191406 C 262.671875 917.527344 267.34375 918.136719 272.203125 917.535156 C 274.273438 917.277344 276.378906 916.800781 278.289062 916.222656 C 277.5 915.242188 276.707031 914.261719 275.929688 913.308594 C 275.515625 913.5 275.082031 913.691406 274.617188 913.871094 C 272.1875 914.824219 269.027344 915.566406 265.28125 915.097656 C 261.535156 914.628906 257.207031 912.953125 254.082031 910.542969 C 252.074219 909 250.5625 907.152344 249.394531 905.570312 Z M 249.394531 905.570312 " fill-opacity="1" fill-rule="evenodd"/><path fill="#e5f3f4" d="M 241.253906 908.453125 L 241.132812 908.503906 C 240.59375 908.742188 240.09375 908.980469 239.632812 909.21875 C 240.460938 910.863281 241.703125 912.910156 243.300781 914.929688 C 245.675781 917.9375 248.832031 920.894531 252.375 923.195312 C 255.917969 925.496094 259.84375 927.144531 263.710938 927.652344 C 267.578125 928.15625 271.378906 927.523438 275.265625 926.425781 C 278.4375 925.53125 281.667969 924.324219 283.910156 923.351562 C 283.433594 922.730469 282.917969 922.066406 282.378906 921.378906 C 280.734375 922.082031 278.78125 922.9375 276.777344 923.628906 C 273.359375 924.808594 269.796875 925.519531 266.101562 925.402344 C 262.402344 925.289062 258.574219 924.34375 255.027344 922.515625 C 251.480469 920.683594 248.214844 917.960938 245.761719 915.082031 C 243.746094 912.714844 242.277344 910.242188 241.25 908.449219 Z M 241.253906 908.453125 " fill-opacity="1" fill-rule="evenodd"/><path fill="#e5f3f4" d="M 234.390625 913.398438 C 234.34375 913.464844 234.296875 913.535156 234.253906 913.601562 C 233.796875 914.28125 233.472656 914.945312 233.253906 915.597656 C 234.929688 918.152344 237.59375 921.742188 240 924.523438 C 242.832031 927.792969 245.3125 929.949219 248.484375 931.875 C 251.65625 933.800781 255.515625 935.496094 259.730469 936.53125 C 263.945312 937.570312 268.511719 937.945312 272.027344 937.574219 C 275.542969 937.199219 278.003906 936.074219 280.992188 934.871094 C 283.699219 933.78125 286.835938 932.625 289.097656 931.328125 C 288.917969 930.714844 288.582031 929.980469 287.863281 928.835938 C 286.265625 930 284.441406 931.296875 282.589844 932.339844 C 279.0625 934.332031 275.449219 935.40625 271.660156 935.726562 C 267.871094 936.050781 263.902344 935.617188 259.851562 934.445312 C 255.800781 933.273438 251.671875 931.363281 247.992188 928.542969 C 244.316406 925.722656 241.09375 921.992188 238.519531 918.765625 C 236.855469 916.683594 235.464844 914.808594 234.390625 913.398438 Z M 234.390625 913.398438 " fill-opacity="1" fill-rule="evenodd"/></svg>