<svg xmlns="http://www.w3.org/2000/svg" xmlns:xlink="http://www.w3.org/1999/xlink" width="1080" zoomAndPan="magnify" viewBox="0 0 810 1439.999935" height="1920" preserveAspectRatio="xMidYMid meet" version="1.0"><defs><g/></defs><path stroke-linecap="butt" transform="matrix(0.75, 0, 0, 0.75, 81.000011, 395.35023)" fill="none" stroke-linejoin="miter" d="M -0.000015 4.001777 L 864.00006 4.001777 " stroke="#ffffff" stroke-width="8" stroke-opacity="1" stroke-miterlimit="4"/><g fill="#fafdfb" fill-opacity="1"><g transform="translate(81.000011, 296.738229)"><g><path d="M 24.140625 -35.140625 L 24.140625 -32.15625 L 3.125 -32.15625 L 3.125 -35.140625 L 12.53125 -35.140625 C 12.207031 -35.867188 11.859375 -36.617188 11.484375 -37.390625 C 11.117188 -38.160156 10.765625 -38.863281 10.421875 -39.5 L 13.625 -40.3125 C 14.070312 -39.519531 14.53125 -38.660156 15 -37.734375 C 15.46875 -36.804688 15.859375 -35.941406 16.171875 -35.140625 Z M 6.625 -11.375 L 9.546875 -10.609375 C 9.003906 -8.941406 8.273438 -7.300781 7.359375 -5.6875 C 6.453125 -4.070312 5.535156 -2.703125 4.609375 -1.578125 C 4.316406 -1.835938 3.921875 -2.148438 3.421875 -2.515625 C 2.929688 -2.890625 2.507812 -3.1875 2.15625 -3.40625 C 3.113281 -4.425781 3.976562 -5.640625 4.75 -7.046875 C 5.519531 -8.460938 6.144531 -9.90625 6.625 -11.375 Z M 6.234375 -31.15625 L 9.125 -31.828125 C 9.601562 -30.796875 10.03125 -29.648438 10.40625 -28.390625 C 10.789062 -27.128906 11.035156 -26.035156 11.140625 -25.109375 L 8.109375 -24.28125 C 8.015625 -25.21875 7.789062 -26.320312 7.4375 -27.59375 C 7.082031 -28.875 6.679688 -30.0625 6.234375 -31.15625 Z M 24.34375 -13.15625 L 15.40625 -13.15625 L 15.40625 -0.953125 C 15.40625 -0.128906 15.304688 0.515625 15.109375 0.984375 C 14.921875 1.453125 14.554688 1.8125 14.015625 2.0625 C 13.472656 2.320312 12.785156 2.484375 11.953125 2.546875 C 11.117188 2.609375 10.125 2.640625 8.96875 2.640625 C 8.8125 1.648438 8.460938 0.640625 7.921875 -0.390625 C 8.753906 -0.359375 9.503906 -0.34375 10.171875 -0.34375 C 10.847656 -0.34375 11.3125 -0.359375 11.5625 -0.390625 C 11.945312 -0.390625 12.140625 -0.597656 12.140625 -1.015625 L 12.140625 -13.15625 L 2.59375 -13.15625 L 2.59375 -16.21875 L 12.140625 -16.21875 L 12.140625 -21.265625 L 2.40625 -21.265625 L 2.40625 -24.28125 L 15.59375 -24.28125 C 16.039062 -25.40625 16.515625 -26.6875 17.015625 -28.125 C 17.515625 -29.5625 17.90625 -30.828125 18.1875 -31.921875 L 21.453125 -31.203125 C 21.035156 -30.046875 20.601562 -28.859375 20.15625 -27.640625 C 19.707031 -26.429688 19.257812 -25.3125 18.8125 -24.28125 L 24.90625 -24.28125 L 24.90625 -21.265625 L 15.40625 -21.265625 L 15.40625 -16.21875 L 24.34375 -16.21875 Z M 17.328125 -10.3125 L 19.78125 -11.5625 C 20.539062 -10.382812 21.304688 -9.085938 22.078125 -7.671875 C 22.847656 -6.265625 23.410156 -5.050781 23.765625 -4.03125 L 21.265625 -2.59375 C 20.878906 -3.613281 20.3125 -4.859375 19.5625 -6.328125 C 18.8125 -7.804688 18.066406 -9.132812 17.328125 -10.3125 Z M 45.796875 -24.09375 L 45.796875 -20.734375 L 40.5625 -20.734375 L 40.5625 3.453125 L 37.109375 3.453125 L 37.109375 -20.734375 L 29.859375 -20.734375 L 29.859375 -19.203125 C 29.859375 -17.472656 29.800781 -15.628906 29.6875 -13.671875 C 29.570312 -11.722656 29.335938 -9.75 28.984375 -7.75 C 28.640625 -5.75 28.140625 -3.804688 27.484375 -1.921875 C 26.828125 -0.0351562 25.953125 1.675781 24.859375 3.21875 C 24.546875 2.863281 24.109375 2.46875 23.546875 2.03125 C 22.984375 1.601562 22.507812 1.28125 22.125 1.0625 C 23.46875 -0.863281 24.453125 -2.992188 25.078125 -5.328125 C 25.703125 -7.660156 26.101562 -10.023438 26.28125 -12.421875 C 26.457031 -14.828125 26.546875 -17.085938 26.546875 -19.203125 L 26.546875 -35.5625 C 28.335938 -35.851562 30.160156 -36.195312 32.015625 -36.59375 C 33.867188 -37 35.617188 -37.429688 37.265625 -37.890625 C 38.921875 -38.359375 40.304688 -38.832031 41.421875 -39.3125 L 44.296875 -36.671875 C 42.347656 -35.929688 40.078125 -35.265625 37.484375 -34.671875 C 34.890625 -34.085938 32.347656 -33.601562 29.859375 -33.21875 L 29.859375 -24.09375 Z M 45.796875 -24.09375 "/></g></g></g><g fill="#fafdfb" fill-opacity="1"><g transform="translate(128.999927, 296.738229)"><g><path d="M 42.71875 -39.84375 L 42.71875 -18.484375 C 42.71875 -17.484375 42.597656 -16.726562 42.359375 -16.21875 C 42.117188 -15.707031 41.628906 -15.3125 40.890625 -15.03125 C 40.191406 -14.769531 39.25 -14.609375 38.0625 -14.546875 C 36.875 -14.484375 35.4375 -14.453125 33.75 -14.453125 C 33.675781 -14.929688 33.519531 -15.472656 33.28125 -16.078125 C 33.039062 -16.679688 32.796875 -17.226562 32.546875 -17.71875 C 33.921875 -17.675781 35.148438 -17.65625 36.234375 -17.65625 C 37.328125 -17.65625 38.050781 -17.675781 38.40625 -17.71875 C 38.75 -17.71875 38.984375 -17.78125 39.109375 -17.90625 C 39.242188 -18.03125 39.3125 -18.253906 39.3125 -18.578125 L 39.3125 -39.84375 Z M 33.75 -37.4375 L 33.75 -21.453125 L 30.4375 -21.453125 L 30.4375 -37.4375 Z M 12.765625 -28.75 L 12.765625 -28.46875 L 18.671875 -28.46875 L 18.671875 -35.046875 L 12.765625 -35.046875 Z M 18.671875 -25.296875 L 12.53125 -25.296875 C 12.238281 -23.242188 11.570312 -21.203125 10.53125 -19.171875 C 9.488281 -17.140625 7.753906 -15.359375 5.328125 -13.828125 C 5.097656 -14.179688 4.734375 -14.617188 4.234375 -15.140625 C 3.742188 -15.671875 3.320312 -16.0625 2.96875 -16.3125 C 5.050781 -17.59375 6.539062 -19.007812 7.4375 -20.5625 C 8.332031 -22.113281 8.925781 -23.691406 9.21875 -25.296875 L 3.40625 -25.296875 L 3.40625 -28.46875 L 9.453125 -28.46875 L 9.453125 -35.046875 L 4.984375 -35.046875 L 4.984375 -38.203125 L 26.5 -38.203125 L 26.5 -35.046875 L 22.03125 -35.046875 L 22.03125 -28.46875 L 27.453125 -28.46875 L 27.453125 -25.296875 L 22.03125 -25.296875 L 22.03125 -15.03125 L 18.671875 -15.03125 Z M 26.0625 -1.296875 L 45.546875 -1.296875 L 45.546875 2.0625 L 2.453125 2.0625 L 2.453125 -1.296875 L 22.46875 -1.296875 L 22.46875 -7.34375 L 7.390625 -7.34375 L 7.390625 -10.609375 L 22.46875 -10.609375 L 22.46875 -15.984375 L 26.0625 -15.984375 L 26.0625 -10.609375 L 40.5625 -10.609375 L 40.5625 -7.34375 L 26.0625 -7.34375 Z M 26.0625 -1.296875 "/></g></g></g><g fill="#fafdfb" fill-opacity="1"><g transform="translate(176.999842, 296.738229)"><g><path d="M 22.890625 -36.234375 L 22.890625 -33.03125 L 4.46875 -33.03125 L 4.46875 -36.234375 Z M 24.578125 -4.21875 L 21.40625 -3.21875 C 21.28125 -3.664062 21.144531 -4.148438 21 -4.671875 C 20.851562 -5.203125 20.703125 -5.773438 20.546875 -6.390625 C 17.242188 -5.648438 14.582031 -5.039062 12.5625 -4.5625 C 10.550781 -4.082031 9.007812 -3.707031 7.9375 -3.4375 C 6.875 -3.164062 6.097656 -2.929688 5.609375 -2.734375 C 5.128906 -2.546875 4.75 -2.367188 4.46875 -2.203125 L 4.46875 -2.40625 C 4.4375 -2.375 4.421875 -2.320312 4.421875 -2.25 C 4.347656 -2.601562 4.191406 -3.128906 3.953125 -3.828125 C 3.710938 -4.535156 3.5 -5.113281 3.3125 -5.5625 C 3.695312 -5.664062 4.054688 -6.007812 4.390625 -6.59375 C 4.722656 -7.1875 5.082031 -7.929688 5.46875 -8.828125 C 5.695312 -9.367188 6.039062 -10.285156 6.5 -11.578125 C 6.96875 -12.878906 7.460938 -14.410156 7.984375 -16.171875 C 8.515625 -17.929688 8.972656 -19.738281 9.359375 -21.59375 L 2.734375 -21.59375 L 2.734375 -24.859375 L 23.71875 -24.859375 L 23.71875 -21.59375 L 13.0625 -21.59375 C 12.445312 -19.070312 11.707031 -16.546875 10.84375 -14.015625 C 9.976562 -11.484375 9.082031 -9.128906 8.15625 -6.953125 L 19.53125 -9.359375 C 19.113281 -10.578125 18.664062 -11.816406 18.1875 -13.078125 C 17.707031 -14.335938 17.226562 -15.53125 16.75 -16.65625 L 19.734375 -17.46875 C 20.335938 -16.0625 20.953125 -14.539062 21.578125 -12.90625 C 22.203125 -11.28125 22.785156 -9.707031 23.328125 -8.1875 C 23.867188 -6.664062 24.285156 -5.34375 24.578125 -4.21875 Z M 34.65625 -29.140625 L 45.21875 -29.140625 C 45.21875 -29.140625 45.207031 -28.90625 45.1875 -28.4375 C 45.175781 -27.976562 45.171875 -27.617188 45.171875 -27.359375 C 45.003906 -22.460938 44.84375 -18.3125 44.6875 -14.90625 C 44.53125 -11.5 44.347656 -8.707031 44.140625 -6.53125 C 43.929688 -4.351562 43.679688 -2.660156 43.390625 -1.453125 C 43.097656 -0.253906 42.75 0.613281 42.34375 1.15625 C 41.820312 1.757812 41.304688 2.1875 40.796875 2.4375 C 40.285156 2.695312 39.644531 2.875 38.875 2.96875 C 38.144531 3.039062 37.175781 3.066406 35.96875 3.046875 C 34.769531 3.035156 33.53125 2.992188 32.25 2.921875 C 32.21875 2.378906 32.101562 1.785156 31.90625 1.140625 C 31.71875 0.503906 31.46875 -0.0664062 31.15625 -0.578125 C 32.5 -0.453125 33.742188 -0.378906 34.890625 -0.359375 C 36.046875 -0.347656 36.878906 -0.34375 37.390625 -0.34375 C 37.804688 -0.300781 38.15625 -0.328125 38.4375 -0.421875 C 38.726562 -0.523438 38.988281 -0.738281 39.21875 -1.0625 C 39.632812 -1.539062 39.992188 -2.632812 40.296875 -4.34375 C 40.597656 -6.050781 40.859375 -8.625 41.078125 -12.0625 C 41.304688 -15.507812 41.503906 -20.066406 41.671875 -25.734375 L 34.515625 -25.734375 C 34.285156 -21.796875 33.859375 -18.007812 33.234375 -14.375 C 32.609375 -10.738281 31.628906 -7.382812 30.296875 -4.3125 C 28.972656 -1.25 27.144531 1.398438 24.8125 3.640625 C 24.5 3.191406 24.066406 2.710938 23.515625 2.203125 C 22.972656 1.691406 22.476562 1.3125 22.03125 1.0625 C 24.207031 -0.925781 25.910156 -3.3125 27.140625 -6.09375 C 28.367188 -8.875 29.269531 -11.9375 29.84375 -15.28125 C 30.425781 -18.625 30.816406 -22.109375 31.015625 -25.734375 L 24.34375 -25.734375 L 24.34375 -29.140625 L 31.15625 -29.140625 C 31.21875 -30.835938 31.253906 -32.539062 31.265625 -34.25 C 31.285156 -35.957031 31.296875 -37.660156 31.296875 -39.359375 L 34.796875 -39.359375 C 34.796875 -35.898438 34.75 -32.492188 34.65625 -29.140625 Z M 34.65625 -29.140625 "/></g></g></g><g fill="#fafdfb" fill-opacity="1"><g transform="translate(224.999758, 296.738229)"><g><path d="M 20.109375 -15.703125 L 14.0625 -13.78125 L 14.0625 3.703125 L 10.75 3.703125 L 10.75 -12.71875 C 9.34375 -12.300781 7.96875 -11.875 6.625 -11.4375 C 5.28125 -11.007812 4.015625 -10.617188 2.828125 -10.265625 L 1.875 -13.6875 C 3.09375 -14.03125 4.457031 -14.410156 5.96875 -14.828125 C 7.488281 -15.242188 9.082031 -15.707031 10.75 -16.21875 L 10.75 -26.921875 L 6.390625 -26.921875 C 6.097656 -25.578125 5.78125 -24.304688 5.4375 -23.109375 C 5.101562 -21.910156 4.710938 -20.816406 4.265625 -19.828125 C 3.953125 -20.046875 3.515625 -20.332031 2.953125 -20.6875 C 2.390625 -21.039062 1.914062 -21.28125 1.53125 -21.40625 C 2.457031 -23.457031 3.171875 -25.90625 3.671875 -28.75 C 4.171875 -31.601562 4.5625 -34.484375 4.84375 -37.390625 L 7.96875 -36.859375 C 7.84375 -35.773438 7.695312 -34.6875 7.53125 -33.59375 C 7.375 -32.507812 7.21875 -31.441406 7.0625 -30.390625 L 10.75 -30.390625 L 10.75 -40.125 L 14.0625 -40.125 L 14.0625 -30.390625 L 18.953125 -30.390625 L 18.953125 -26.921875 L 14.0625 -26.921875 L 14.0625 -17.140625 L 19.625 -18.859375 Z M 26.78125 -32.15625 L 45.453125 -32.15625 C 45.453125 -32.15625 45.453125 -31.90625 45.453125 -31.40625 C 45.453125 -30.914062 45.4375 -30.5625 45.40625 -30.34375 C 45.15625 -24.894531 44.890625 -20.289062 44.609375 -16.53125 C 44.335938 -12.769531 44.039062 -9.691406 43.71875 -7.296875 C 43.40625 -4.898438 43.054688 -3.023438 42.671875 -1.671875 C 42.285156 -0.328125 41.851562 0.644531 41.375 1.25 C 40.925781 1.851562 40.445312 2.289062 39.9375 2.5625 C 39.425781 2.832031 38.800781 3.003906 38.0625 3.078125 C 37.425781 3.171875 36.617188 3.207031 35.640625 3.1875 C 34.660156 3.175781 33.644531 3.140625 32.59375 3.078125 C 32.5625 2.523438 32.460938 1.921875 32.296875 1.265625 C 32.140625 0.609375 31.898438 0.0390625 31.578125 -0.4375 C 32.671875 -0.332031 33.664062 -0.265625 34.5625 -0.234375 C 35.457031 -0.203125 36.144531 -0.1875 36.625 -0.1875 C 37.363281 -0.1875 37.957031 -0.460938 38.40625 -1.015625 C 38.78125 -1.421875 39.132812 -2.21875 39.46875 -3.40625 C 39.8125 -4.59375 40.117188 -6.265625 40.390625 -8.421875 C 40.660156 -10.578125 40.929688 -13.328125 41.203125 -16.671875 C 41.472656 -20.023438 41.722656 -24.066406 41.953125 -28.796875 L 39.640625 -28.796875 C 39.035156 -25.660156 38.253906 -22.546875 37.296875 -19.453125 C 36.335938 -16.367188 35.207031 -13.425781 33.90625 -10.625 C 32.613281 -7.832031 31.132812 -5.28125 29.46875 -2.96875 C 27.800781 -0.664062 25.976562 1.28125 24 2.875 C 23.675781 2.488281 23.234375 2.097656 22.671875 1.703125 C 22.117188 1.304688 21.570312 0.976562 21.03125 0.71875 C 23.644531 -1.164062 25.96875 -3.648438 28 -6.734375 C 30.039062 -9.828125 31.769531 -13.273438 33.1875 -17.078125 C 34.613281 -20.890625 35.742188 -24.796875 36.578125 -28.796875 L 32.640625 -28.796875 C 31.929688 -26.078125 30.984375 -23.332031 29.796875 -20.5625 C 28.617188 -17.800781 27.269531 -15.242188 25.75 -12.890625 C 24.226562 -10.535156 22.585938 -8.59375 20.828125 -7.0625 C 20.515625 -7.40625 20.09375 -7.769531 19.5625 -8.15625 C 19.03125 -8.539062 18.507812 -8.863281 18 -9.125 C 19.695312 -10.46875 21.289062 -12.1875 22.78125 -14.28125 C 24.269531 -16.375 25.585938 -18.675781 26.734375 -21.1875 C 27.890625 -23.695312 28.832031 -26.234375 29.5625 -28.796875 L 25.4375 -28.796875 C 24.632812 -27.035156 23.773438 -25.378906 22.859375 -23.828125 C 21.953125 -22.273438 20.988281 -20.894531 19.96875 -19.6875 C 19.675781 -19.96875 19.234375 -20.320312 18.640625 -20.75 C 18.054688 -21.1875 17.585938 -21.519531 17.234375 -21.75 C 19.210938 -23.882812 20.90625 -26.582031 22.3125 -29.84375 C 23.726562 -33.113281 24.832031 -36.554688 25.625 -40.171875 L 28.890625 -39.5 C 28.609375 -38.21875 28.289062 -36.96875 27.9375 -35.75 C 27.582031 -34.539062 27.195312 -33.34375 26.78125 -32.15625 Z M 26.78125 -32.15625 "/></g></g></g><g fill="#fafdfb" fill-opacity="1"><g transform="translate(272.999674, 296.738229)"><g><path d="M 14.25 -12.625 L 31.734375 -12.625 C 31.984375 -14.507812 32.210938 -16.320312 32.421875 -18.0625 C 32.628906 -19.8125 32.8125 -21.421875 32.96875 -22.890625 L 16.375 -22.890625 C 16.019531 -21.066406 15.664062 -19.273438 15.3125 -17.515625 C 14.957031 -15.753906 14.601562 -14.125 14.25 -12.625 Z M 33.84375 -1.53125 L 45.5 -1.53125 L 45.5 1.96875 L 2.6875 1.96875 L 2.6875 -1.53125 L 30.140625 -1.53125 C 30.335938 -2.75 30.53125 -4.003906 30.71875 -5.296875 C 30.914062 -6.597656 31.109375 -7.921875 31.296875 -9.265625 L 9.5 -9.265625 C 9.914062 -10.828125 10.351562 -12.613281 10.8125 -14.625 C 11.28125 -16.644531 11.738281 -18.769531 12.1875 -21 C 12.632812 -23.226562 13.066406 -25.441406 13.484375 -27.640625 C 13.898438 -29.847656 14.269531 -31.945312 14.59375 -33.9375 L 4.265625 -33.9375 L 4.265625 -37.390625 L 44.0625 -37.390625 L 44.0625 -33.9375 L 18.390625 -33.9375 C 18.191406 -32.71875 17.972656 -31.46875 17.734375 -30.1875 C 17.492188 -28.90625 17.242188 -27.59375 16.984375 -26.25 L 33.703125 -26.25 L 34.375 -26.453125 L 37.015625 -26.109375 C 36.847656 -24.472656 36.644531 -22.65625 36.40625 -20.65625 C 36.164062 -18.65625 35.898438 -16.550781 35.609375 -14.34375 C 35.328125 -12.144531 35.03125 -9.957031 34.71875 -7.78125 C 34.414062 -5.601562 34.125 -3.519531 33.84375 -1.53125 Z M 33.84375 -1.53125 "/></g></g></g><g fill="#fafdfb" fill-opacity="1"><g transform="translate(320.999578, 296.738229)"><g><path d="M 22.890625 -36.234375 L 22.890625 -33.03125 L 4.46875 -33.03125 L 4.46875 -36.234375 Z M 24.578125 -4.21875 L 21.40625 -3.21875 C 21.28125 -3.664062 21.144531 -4.148438 21 -4.671875 C 20.851562 -5.203125 20.703125 -5.773438 20.546875 -6.390625 C 17.242188 -5.648438 14.582031 -5.039062 12.5625 -4.5625 C 10.550781 -4.082031 9.007812 -3.707031 7.9375 -3.4375 C 6.875 -3.164062 6.097656 -2.929688 5.609375 -2.734375 C 5.128906 -2.546875 4.75 -2.367188 4.46875 -2.203125 L 4.46875 -2.40625 C 4.4375 -2.375 4.421875 -2.320312 4.421875 -2.25 C 4.347656 -2.601562 4.191406 -3.128906 3.953125 -3.828125 C 3.710938 -4.535156 3.5 -5.113281 3.3125 -5.5625 C 3.695312 -5.664062 4.054688 -6.007812 4.390625 -6.59375 C 4.722656 -7.1875 5.082031 -7.929688 5.46875 -8.828125 C 5.695312 -9.367188 6.039062 -10.285156 6.5 -11.578125 C 6.96875 -12.878906 7.460938 -14.410156 7.984375 -16.171875 C 8.515625 -17.929688 8.972656 -19.738281 9.359375 -21.59375 L 2.734375 -21.59375 L 2.734375 -24.859375 L 23.71875 -24.859375 L 23.71875 -21.59375 L 13.0625 -21.59375 C 12.445312 -19.070312 11.707031 -16.546875 10.84375 -14.015625 C 9.976562 -11.484375 9.082031 -9.128906 8.15625 -6.953125 L 19.53125 -9.359375 C 19.113281 -10.578125 18.664062 -11.816406 18.1875 -13.078125 C 17.707031 -14.335938 17.226562 -15.53125 16.75 -16.65625 L 19.734375 -17.46875 C 20.335938 -16.0625 20.953125 -14.539062 21.578125 -12.90625 C 22.203125 -11.28125 22.785156 -9.707031 23.328125 -8.1875 C 23.867188 -6.664062 24.285156 -5.34375 24.578125 -4.21875 Z M 34.65625 -29.140625 L 45.21875 -29.140625 C 45.21875 -29.140625 45.207031 -28.90625 45.1875 -28.4375 C 45.175781 -27.976562 45.171875 -27.617188 45.171875 -27.359375 C 45.003906 -22.460938 44.84375 -18.3125 44.6875 -14.90625 C 44.53125 -11.5 44.347656 -8.707031 44.140625 -6.53125 C 43.929688 -4.351562 43.679688 -2.660156 43.390625 -1.453125 C 43.097656 -0.253906 42.75 0.613281 42.34375 1.15625 C 41.820312 1.757812 41.304688 2.1875 40.796875 2.4375 C 40.285156 2.695312 39.644531 2.875 38.875 2.96875 C 38.144531 3.039062 37.175781 3.066406 35.96875 3.046875 C 34.769531 3.035156 33.53125 2.992188 32.25 2.921875 C 32.21875 2.378906 32.101562 1.785156 31.90625 1.140625 C 31.71875 0.503906 31.46875 -0.0664062 31.15625 -0.578125 C 32.5 -0.453125 33.742188 -0.378906 34.890625 -0.359375 C 36.046875 -0.347656 36.878906 -0.34375 37.390625 -0.34375 C 37.804688 -0.300781 38.15625 -0.328125 38.4375 -0.421875 C 38.726562 -0.523438 38.988281 -0.738281 39.21875 -1.0625 C 39.632812 -1.539062 39.992188 -2.632812 40.296875 -4.34375 C 40.597656 -6.050781 40.859375 -8.625 41.078125 -12.0625 C 41.304688 -15.507812 41.503906 -20.066406 41.671875 -25.734375 L 34.515625 -25.734375 C 34.285156 -21.796875 33.859375 -18.007812 33.234375 -14.375 C 32.609375 -10.738281 31.628906 -7.382812 30.296875 -4.3125 C 28.972656 -1.25 27.144531 1.398438 24.8125 3.640625 C 24.5 3.191406 24.066406 2.710938 23.515625 2.203125 C 22.972656 1.691406 22.476562 1.3125 22.03125 1.0625 C 24.207031 -0.925781 25.910156 -3.3125 27.140625 -6.09375 C 28.367188 -8.875 29.269531 -11.9375 29.84375 -15.28125 C 30.425781 -18.625 30.816406 -22.109375 31.015625 -25.734375 L 24.34375 -25.734375 L 24.34375 -29.140625 L 31.15625 -29.140625 C 31.21875 -30.835938 31.253906 -32.539062 31.265625 -34.25 C 31.285156 -35.957031 31.296875 -37.660156 31.296875 -39.359375 L 34.796875 -39.359375 C 34.796875 -35.898438 34.75 -32.492188 34.65625 -29.140625 Z M 34.65625 -29.140625 "/></g></g></g><g fill="#fafdfb" fill-opacity="1"><g transform="translate(368.999482, 296.738229)"><g><path d="M 45.546875 -15.453125 L 45.546875 -11.953125 L 25.875 -11.953125 L 25.875 -1.296875 C 25.875 -0.015625 25.671875 0.925781 25.265625 1.53125 C 24.867188 2.144531 24.222656 2.59375 23.328125 2.875 C 22.429688 3.164062 21.191406 3.347656 19.609375 3.421875 C 18.023438 3.503906 15.96875 3.53125 13.4375 3.5 C 13.3125 2.988281 13.097656 2.390625 12.796875 1.703125 C 12.492188 1.015625 12.195312 0.429688 11.90625 -0.046875 C 13.914062 0.015625 15.757812 0.046875 17.4375 0.046875 C 19.125 0.046875 20.238281 0.03125 20.78125 0 C 21.320312 0 21.703125 -0.09375 21.921875 -0.28125 C 22.148438 -0.476562 22.265625 -0.832031 22.265625 -1.34375 L 22.265625 -11.953125 L 2.546875 -11.953125 L 2.546875 -15.453125 L 22.265625 -15.453125 L 22.265625 -23.234375 L 5.765625 -23.234375 L 5.765625 -26.640625 L 22.265625 -26.640625 L 22.265625 -34.03125 C 19.648438 -33.738281 17.003906 -33.503906 14.328125 -33.328125 C 11.648438 -33.160156 9.082031 -33.007812 6.625 -32.875 C 6.5625 -33.351562 6.429688 -33.894531 6.234375 -34.5 C 6.046875 -35.113281 5.875 -35.628906 5.71875 -36.046875 C 8.5625 -36.171875 11.503906 -36.34375 14.546875 -36.5625 C 17.585938 -36.789062 20.570312 -37.070312 23.5 -37.40625 C 26.425781 -37.75 29.148438 -38.132812 31.671875 -38.5625 C 34.203125 -39 36.363281 -39.503906 38.15625 -40.078125 L 40.84375 -37.25 C 38.800781 -36.644531 36.503906 -36.109375 33.953125 -35.640625 C 31.410156 -35.171875 28.71875 -34.765625 25.875 -34.421875 L 25.875 -26.640625 L 42.859375 -26.640625 L 42.859375 -23.234375 L 25.875 -23.234375 L 25.875 -15.453125 Z M 45.546875 -15.453125 "/></g></g></g><g fill="#fafdfb" fill-opacity="1"><g transform="translate(416.999387, 296.738229)"><g><path d="M 34.125 -20.359375 L 29.765625 -20.359375 C 27.835938 -20.359375 26.617188 -20.132812 26.109375 -19.6875 C 26.015625 -20.03125 25.863281 -20.515625 25.65625 -21.140625 C 25.445312 -21.765625 25.234375 -22.285156 25.015625 -22.703125 C 25.390625 -22.828125 25.757812 -23.175781 26.125 -23.75 C 26.5 -24.332031 26.878906 -25.054688 27.265625 -25.921875 C 27.453125 -26.335938 27.753906 -27.03125 28.171875 -28 C 28.585938 -28.976562 29.003906 -30.109375 29.421875 -31.390625 L 24.484375 -31.390625 L 24.484375 -34.46875 L 30.4375 -34.46875 C 30.6875 -35.394531 30.9375 -36.34375 31.1875 -37.3125 C 31.445312 -38.289062 31.675781 -39.273438 31.875 -40.265625 L 35.28125 -39.546875 C 35.050781 -38.710938 34.800781 -37.863281 34.53125 -37 C 34.257812 -36.144531 33.984375 -35.300781 33.703125 -34.46875 L 45.59375 -34.46875 L 45.59375 -31.390625 L 32.640625 -31.390625 C 32.097656 -29.953125 31.53125 -28.550781 30.9375 -27.1875 C 30.34375 -25.832031 29.726562 -24.5625 29.09375 -23.375 L 34.125 -23.375 L 34.125 -29.09375 L 37.34375 -29.09375 L 37.34375 -23.375 L 44.40625 -23.375 L 44.359375 -20.359375 L 37.34375 -20.359375 L 37.34375 -13.96875 L 45.40625 -13.96875 L 45.40625 -10.84375 L 37.34375 -10.84375 L 37.34375 -2.6875 L 34.125 -2.6875 L 34.125 -10.84375 L 24.90625 -10.84375 L 24.90625 -13.96875 L 34.125 -13.96875 Z M 23.71875 -29.953125 L 20.640625 -28.75 C 20.285156 -29.90625 19.753906 -31.289062 19.046875 -32.90625 C 18.347656 -34.519531 17.628906 -35.96875 16.890625 -37.25 L 19.78125 -38.25 C 20.539062 -36.976562 21.289062 -35.554688 22.03125 -33.984375 C 22.769531 -32.410156 23.332031 -31.066406 23.71875 -29.953125 Z M 16.21875 -31.53125 L 7.109375 -31.53125 C 5.953125 -28.9375 4.6875 -26.765625 3.3125 -25.015625 C 3.1875 -25.390625 2.921875 -25.910156 2.515625 -26.578125 C 2.117188 -27.253906 1.789062 -27.785156 1.53125 -28.171875 C 2.6875 -29.648438 3.710938 -31.441406 4.609375 -33.546875 C 5.503906 -35.660156 6.207031 -37.835938 6.71875 -40.078125 L 9.796875 -39.265625 C 9.628906 -38.492188 9.414062 -37.71875 9.15625 -36.9375 C 8.90625 -36.15625 8.640625 -35.394531 8.359375 -34.65625 L 16.21875 -34.65625 Z M 11.140625 -3.59375 L 15.3125 -6.34375 C 15.4375 -5.925781 15.59375 -5.453125 15.78125 -4.921875 C 15.976562 -4.390625 16.175781 -3.960938 16.375 -3.640625 C 14.582031 -2.398438 13.132812 -1.382812 12.03125 -0.59375 C 10.925781 0.1875 10.066406 0.804688 9.453125 1.265625 C 8.847656 1.734375 8.390625 2.101562 8.078125 2.375 C 7.773438 2.644531 7.546875 2.894531 7.390625 3.125 C 7.203125 2.769531 6.914062 2.328125 6.53125 1.796875 C 6.144531 1.273438 5.804688 0.882812 5.515625 0.625 C 5.960938 0.269531 6.457031 -0.296875 7 -1.078125 C 7.550781 -1.859375 7.828125 -2.8125 7.828125 -3.9375 L 7.828125 -12.8125 L 2.453125 -12.8125 L 2.453125 -15.9375 L 7.828125 -15.9375 L 7.828125 -22.703125 L 4.125 -22.703125 L 4.125 -25.78125 L 15.359375 -25.78125 L 15.359375 -22.703125 L 11.140625 -22.703125 L 11.140625 -15.9375 L 16.421875 -15.9375 L 16.421875 -12.8125 L 11.140625 -12.8125 Z M 23.375 -23.1875 L 23.375 -4.703125 C 23.820312 -4.515625 24.289062 -4.234375 24.78125 -3.859375 C 25.28125 -3.492188 25.882812 -3.085938 26.59375 -2.640625 C 27.738281 -1.898438 29.03125 -1.394531 30.46875 -1.125 C 31.914062 -0.851562 33.582031 -0.71875 35.46875 -0.71875 C 36.457031 -0.71875 37.597656 -0.738281 38.890625 -0.78125 C 40.191406 -0.832031 41.515625 -0.90625 42.859375 -1 C 44.203125 -1.101562 45.40625 -1.21875 46.46875 -1.34375 C 46.269531 -0.832031 46.070312 -0.210938 45.875 0.515625 C 45.6875 1.253906 45.59375 1.882812 45.59375 2.40625 C 44.769531 2.4375 43.738281 2.472656 42.5 2.515625 C 41.269531 2.566406 40.015625 2.609375 38.734375 2.640625 C 37.453125 2.671875 36.332031 2.6875 35.375 2.6875 C 33.363281 2.6875 31.613281 2.507812 30.125 2.15625 C 28.632812 1.800781 27.25 1.226562 25.96875 0.4375 C 25.164062 -0.144531 24.425781 -0.675781 23.75 -1.15625 C 23.082031 -1.632812 22.507812 -1.875 22.03125 -1.875 C 21.363281 -1.875 20.5625 -1.351562 19.625 -0.3125 C 18.695312 0.726562 17.769531 1.90625 16.84375 3.21875 L 14.546875 -0.046875 C 15.472656 -1.066406 16.414062 -1.96875 17.375 -2.75 C 18.332031 -3.539062 19.242188 -4.144531 20.109375 -4.5625 L 20.109375 -19.875 L 15.546875 -19.875 L 15.546875 -23.1875 Z M 23.375 -23.1875 "/></g></g></g><g fill="#fafdfb" fill-opacity="1"><g transform="translate(81.000011, 203.863762)"><g><path d="M 0.21875 -72 L 6.546875 -72 L 34.625 -8.921875 C 35.0625 -7.921875 35.519531 -7.421875 36 -7.421875 C 36.53125 -7.421875 36.960938 -7.992188 37.296875 -9.140625 L 44.359375 -33.703125 C 44.640625 -34.753906 44.742188 -35.90625 44.671875 -37.15625 C 44.597656 -38.40625 44.347656 -39.507812 43.921875 -40.46875 L 29.8125 -72 L 36.140625 -72 L 46.375 -49.109375 C 46.800781 -48.140625 47.226562 -47.65625 47.65625 -47.65625 C 48.144531 -47.65625 48.53125 -48.1875 48.8125 -49.25 L 55.375 -72 L 61.703125 -72 L 51.625 -43.421875 C 51.289062 -42.410156 51.132812 -41.28125 51.15625 -40.03125 C 51.175781 -38.78125 51.40625 -37.675781 51.84375 -36.71875 L 64.21875 -8.921875 C 64.65625 -7.921875 65.113281 -7.421875 65.59375 -7.421875 C 66.125 -7.421875 66.554688 -7.992188 66.890625 -9.140625 L 84.953125 -72 L 91.296875 -72 L 65.8125 0 L 61.921875 0 L 49.03125 -28.796875 C 48.601562 -29.753906 48.125 -30.234375 47.59375 -30.234375 C 47.15625 -30.234375 46.75 -29.734375 46.375 -28.734375 L 36.21875 0 L 32.328125 0 Z M 0.21875 -72 "/></g></g></g><g fill="#fafdfb" fill-opacity="1"><g transform="translate(173.720996, 203.863762)"><g><path d="M 10.515625 0 L 4.75 0 L 4.75 -49.828125 L 10.515625 -49.828125 Z M 0.9375 -61.265625 C 0.695312 -61.367188 0.578125 -61.476562 0.578125 -61.59375 C 0.578125 -61.71875 0.695312 -61.800781 0.9375 -61.84375 C 2.28125 -62.28125 3.332031 -62.722656 4.09375 -63.171875 C 4.863281 -63.628906 5.488281 -64.289062 5.96875 -65.15625 C 6.457031 -66.019531 6.914062 -67.222656 7.34375 -68.765625 C 7.4375 -69.003906 7.578125 -69.125 7.765625 -69.125 C 7.960938 -69.125 8.085938 -69.003906 8.140625 -68.765625 C 8.566406 -67.222656 9.019531 -66.019531 9.5 -65.15625 C 9.976562 -64.289062 10.601562 -63.617188 11.375 -63.140625 C 12.144531 -62.660156 13.203125 -62.226562 14.546875 -61.84375 C 14.785156 -61.800781 14.90625 -61.71875 14.90625 -61.59375 C 14.90625 -61.476562 14.785156 -61.367188 14.546875 -61.265625 C 13.242188 -60.835938 12.171875 -60.394531 11.328125 -59.9375 C 10.492188 -59.476562 9.835938 -58.828125 9.359375 -57.984375 C 8.878906 -57.148438 8.472656 -55.914062 8.140625 -54.28125 C 8.085938 -54.09375 7.953125 -54 7.734375 -54 C 7.523438 -54 7.394531 -54.09375 7.34375 -54.28125 C 6.914062 -55.914062 6.457031 -57.148438 5.96875 -57.984375 C 5.488281 -58.828125 4.863281 -59.476562 4.09375 -59.9375 C 3.332031 -60.394531 2.28125 -60.835938 0.9375 -61.265625 Z M 0.9375 -61.265625 "/></g></g></g><g fill="#fafdfb" fill-opacity="1"><g transform="translate(189.198489, 203.863762)"><g><path d="M 10.796875 0 L 5.046875 0 L 5.046875 -72 L 10.796875 -72 Z M 10.796875 0 "/></g></g></g><g fill="#fafdfb" fill-opacity="1"><g transform="translate(205.03592, 203.863762)"><g><path d="M 3.59375 -26.421875 C 3.59375 -31.128906 4.410156 -35.351562 6.046875 -39.09375 C 7.679688 -42.84375 10.066406 -45.804688 13.203125 -47.984375 C 16.347656 -50.171875 20.179688 -51.265625 24.703125 -51.265625 C 28.628906 -51.265625 31.769531 -50.734375 34.125 -49.671875 C 36.476562 -48.617188 38.207031 -47.539062 39.3125 -46.4375 C 40.46875 -45.289062 41.378906 -44.71875 42.046875 -44.71875 C 42.910156 -44.71875 43.34375 -45.769531 43.34375 -47.875 L 43.34375 -73.4375 L 48.671875 -73.4375 L 48.671875 0 L 25.703125 0 C 21.960938 0 18.695312 -0.78125 15.90625 -2.34375 C 13.125 -3.90625 10.820312 -5.976562 9 -8.5625 C 7.175781 -11.15625 5.816406 -14.007812 4.921875 -17.125 C 4.035156 -20.25 3.59375 -23.347656 3.59375 -26.421875 Z M 9.4375 -26.359375 C 9.4375 -23.179688 9.84375 -20.117188 10.65625 -17.171875 C 11.46875 -14.222656 12.738281 -11.554688 14.46875 -9.171875 C 16.195312 -6.796875 18.414062 -4.910156 21.125 -3.515625 C 23.84375 -2.128906 27.097656 -1.4375 30.890625 -1.4375 L 39.171875 -1.4375 C 40.273438 -1.4375 41.148438 -1.769531 41.796875 -2.4375 C 42.441406 -3.113281 42.765625 -3.984375 42.765625 -5.046875 L 42.765625 -36.5 C 42.765625 -38.082031 42.570312 -39.332031 42.1875 -40.25 C 41.46875 -41.925781 40.328125 -43.457031 38.765625 -44.84375 C 37.210938 -46.238281 35.378906 -47.359375 33.265625 -48.203125 C 31.148438 -49.046875 28.894531 -49.46875 26.5 -49.46875 C 24 -49.46875 21.703125 -48.84375 19.609375 -47.59375 C 17.523438 -46.34375 15.726562 -44.625 14.21875 -42.4375 C 12.707031 -40.257812 11.53125 -37.789062 10.6875 -35.03125 C 9.851562 -32.269531 9.4375 -29.378906 9.4375 -26.359375 Z M 9.4375 -26.359375 "/></g></g></g><g fill="#fafdfb" fill-opacity="1"><g transform="translate(258.739216, 203.863762)"><g/></g></g><g fill="#fafdfb" fill-opacity="1"><g transform="translate(280.335703, 203.863762)"><g><path d="M 55.65625 0 L 5.765625 0 L 5.765625 -72 L 11.453125 -72 L 11.453125 -6.34375 C 11.453125 -4.414062 11.757812 -3.113281 12.375 -2.4375 C 13 -1.769531 13.960938 -1.4375 15.265625 -1.4375 C 17.898438 -1.4375 20.726562 -1.53125 23.75 -1.71875 C 26.78125 -1.914062 29.867188 -2.171875 33.015625 -2.484375 C 36.160156 -2.796875 39.171875 -3.164062 42.046875 -3.59375 C 44.929688 -4.03125 47.546875 -4.488281 49.890625 -4.96875 C 52.242188 -5.445312 54.164062 -5.925781 55.65625 -6.40625 Z M 55.65625 0 "/></g></g></g><g fill="#fafdfb" fill-opacity="1"><g transform="translate(339.150182, 203.863762)"><g><path d="M 10.515625 0 L 4.75 0 L 4.75 -49.828125 L 10.515625 -49.828125 Z M 0.9375 -61.265625 C 0.695312 -61.367188 0.578125 -61.476562 0.578125 -61.59375 C 0.578125 -61.71875 0.695312 -61.800781 0.9375 -61.84375 C 2.28125 -62.28125 3.332031 -62.722656 4.09375 -63.171875 C 4.863281 -63.628906 5.488281 -64.289062 5.96875 -65.15625 C 6.457031 -66.019531 6.914062 -67.222656 7.34375 -68.765625 C 7.4375 -69.003906 7.578125 -69.125 7.765625 -69.125 C 7.960938 -69.125 8.085938 -69.003906 8.140625 -68.765625 C 8.566406 -67.222656 9.019531 -66.019531 9.5 -65.15625 C 9.976562 -64.289062 10.601562 -63.617188 11.375 -63.140625 C 12.144531 -62.660156 13.203125 -62.226562 14.546875 -61.84375 C 14.785156 -61.800781 14.90625 -61.71875 14.90625 -61.59375 C 14.90625 -61.476562 14.785156 -61.367188 14.546875 -61.265625 C 13.242188 -60.835938 12.171875 -60.394531 11.328125 -59.9375 C 10.492188 -59.476562 9.835938 -58.828125 9.359375 -57.984375 C 8.878906 -57.148438 8.472656 -55.914062 8.140625 -54.28125 C 8.085938 -54.09375 7.953125 -54 7.734375 -54 C 7.523438 -54 7.394531 -54.09375 7.34375 -54.28125 C 6.914062 -55.914062 6.457031 -57.148438 5.96875 -57.984375 C 5.488281 -58.828125 4.863281 -59.476562 4.09375 -59.9375 C 3.332031 -60.394531 2.28125 -60.835938 0.9375 -61.265625 Z M 0.9375 -61.265625 "/></g></g></g><g fill="#fafdfb" fill-opacity="1"><g transform="translate(354.627674, 203.863762)"><g><path d="M 5.046875 0 L 5.046875 -49.828125 L 10.796875 -49.828125 L 10.796875 -44.5 C 10.796875 -43.300781 11.015625 -42.703125 11.453125 -42.703125 C 11.734375 -42.703125 12.257812 -43.035156 13.03125 -43.703125 C 15.625 -46.203125 18.382812 -48.085938 21.3125 -49.359375 C 24.238281 -50.628906 27.570312 -51.265625 31.3125 -51.265625 C 34.96875 -51.265625 38.175781 -50.554688 40.9375 -49.140625 C 43.695312 -47.722656 45.851562 -45.765625 47.40625 -43.265625 C 48.96875 -40.773438 49.75 -37.894531 49.75 -34.625 L 49.75 0 L 43.984375 0 L 43.984375 -34.484375 C 43.984375 -37.890625 43.335938 -40.722656 42.046875 -42.984375 C 40.753906 -45.242188 39.050781 -46.945312 36.9375 -48.09375 C 34.820312 -49.25 32.566406 -49.828125 30.171875 -49.828125 C 27.765625 -49.828125 25.410156 -49.367188 23.109375 -48.453125 C 20.804688 -47.546875 18.726562 -46.3125 16.875 -44.75 C 15.03125 -43.1875 13.554688 -41.421875 12.453125 -39.453125 C 11.347656 -37.484375 10.796875 -35.445312 10.796875 -33.34375 L 10.796875 0 Z M 5.046875 0 "/></g></g></g><g fill="#fafdfb" fill-opacity="1"><g transform="translate(409.410811, 203.863762)"><g><path d="M 5.046875 0 L 5.046875 -72 L 10.796875 -72 L 10.796875 -31.3125 C 10.796875 -29.925781 11.207031 -29.234375 12.03125 -29.234375 C 12.457031 -29.234375 12.984375 -29.472656 13.609375 -29.953125 L 38.65625 -49.828125 L 46.15625 -49.828125 C 43.363281 -48.003906 40.800781 -46.347656 38.46875 -44.859375 C 36.144531 -43.367188 33.851562 -41.898438 31.59375 -40.453125 C 29.34375 -39.015625 26.875 -37.382812 24.1875 -35.5625 C 23.28125 -34.9375 22.765625 -34.179688 22.640625 -33.296875 C 22.523438 -32.410156 22.78125 -31.535156 23.40625 -30.671875 L 45.9375 0 L 38.65625 0 L 18.578125 -27.359375 C 17.859375 -28.367188 16.921875 -28.875 15.765625 -28.875 C 14.804688 -28.875 13.941406 -28.515625 13.171875 -27.796875 C 12.410156 -27.078125 11.820312 -26.195312 11.40625 -25.15625 C 11 -24.125 10.796875 -23.175781 10.796875 -22.3125 L 10.796875 0 Z M 5.046875 0 "/></g></g></g><g fill="#fafdfb" fill-opacity="1"><g transform="translate(81.000011, 354.08201)"><g><path d="M 3.59375 0 L 3.59375 -26.421875 L 7.0625 -26.421875 L 16.671875 -9.75 L 19.46875 -4.3125 L 19.65625 -4.3125 C 19.5625 -5.664062 19.460938 -7.054688 19.359375 -8.484375 C 19.265625 -9.910156 19.21875 -11.304688 19.21875 -12.671875 L 19.21875 -26.421875 L 22.390625 -26.421875 L 22.390625 0 L 18.96875 0 L 9.359375 -16.671875 L 6.515625 -22.109375 L 6.375 -22.109375 C 6.445312 -20.785156 6.53125 -19.425781 6.625 -18.03125 C 6.71875 -16.644531 6.765625 -15.253906 6.765625 -13.859375 L 6.765625 0 Z M 3.59375 0 "/></g></g></g><g fill="#fafdfb" fill-opacity="1"><g transform="translate(109.719538, 354.08201)"><g><path d="M 11.203125 0.46875 C 9.472656 0.46875 7.898438 0.0664062 6.484375 -0.734375 C 5.066406 -1.535156 3.9375 -2.703125 3.09375 -4.234375 C 2.257812 -5.773438 1.84375 -7.613281 1.84375 -9.75 C 1.84375 -11.863281 2.257812 -13.6875 3.09375 -15.21875 C 3.9375 -16.757812 5.03125 -17.945312 6.375 -18.78125 C 7.71875 -19.625 9.144531 -20.046875 10.65625 -20.046875 C 13.15625 -20.046875 15.078125 -19.210938 16.421875 -17.546875 C 17.765625 -15.878906 18.4375 -13.65625 18.4375 -10.875 C 18.4375 -10.507812 18.421875 -10.164062 18.390625 -9.84375 C 18.367188 -9.519531 18.332031 -9.238281 18.28125 -9 L 5.109375 -9 C 5.234375 -6.914062 5.878906 -5.253906 7.046875 -4.015625 C 8.222656 -2.773438 9.738281 -2.15625 11.59375 -2.15625 C 12.550781 -2.15625 13.425781 -2.289062 14.21875 -2.5625 C 15.007812 -2.84375 15.765625 -3.222656 16.484375 -3.703125 L 17.671875 -1.546875 C 16.804688 -0.992188 15.847656 -0.519531 14.796875 -0.125 C 13.742188 0.269531 12.546875 0.46875 11.203125 0.46875 Z M 5.078125 -11.375 L 15.546875 -11.375 C 15.546875 -13.34375 15.117188 -14.84375 14.265625 -15.875 C 13.421875 -16.90625 12.226562 -17.421875 10.6875 -17.421875 C 9.300781 -17.421875 8.066406 -16.890625 6.984375 -15.828125 C 5.898438 -14.773438 5.265625 -13.289062 5.078125 -11.375 Z M 5.078125 -11.375 "/></g></g></g><g fill="#fafdfb" fill-opacity="1"><g transform="translate(132.393038, 354.08201)"><g><path d="M 6.40625 0 L 0.96875 -19.546875 L 4.3125 -19.546875 L 7.234375 -8.25 C 7.429688 -7.3125 7.628906 -6.390625 7.828125 -5.484375 C 8.035156 -4.585938 8.222656 -3.679688 8.390625 -2.765625 L 8.5625 -2.765625 C 8.78125 -3.679688 9 -4.59375 9.21875 -5.5 C 9.4375 -6.414062 9.664062 -7.332031 9.90625 -8.25 L 12.921875 -19.546875 L 16.125 -19.546875 L 19.1875 -8.25 C 19.425781 -7.3125 19.65625 -6.390625 19.875 -5.484375 C 20.09375 -4.585938 20.320312 -3.679688 20.5625 -2.765625 L 20.703125 -2.765625 C 20.921875 -3.679688 21.125 -4.585938 21.3125 -5.484375 C 21.5 -6.390625 21.703125 -7.3125 21.921875 -8.25 L 24.796875 -19.546875 L 27.90625 -19.546875 L 22.640625 0 L 18.6875 0 L 15.84375 -10.546875 C 15.601562 -11.460938 15.378906 -12.378906 15.171875 -13.296875 C 14.972656 -14.222656 14.753906 -15.175781 14.515625 -16.15625 L 14.328125 -16.15625 C 14.109375 -15.175781 13.894531 -14.21875 13.6875 -13.28125 C 13.488281 -12.34375 13.257812 -11.40625 13 -10.46875 L 10.265625 0 Z M 6.40625 0 "/></g></g></g><g fill="#fafdfb" fill-opacity="1"><g transform="translate(163.99162, 354.08201)"><g/></g></g><g fill="#fafdfb" fill-opacity="1"><g transform="translate(174.788994, 354.08201)"><g><path d="M 3.59375 0 L 3.59375 -26.421875 L 6.953125 -26.421875 L 6.953125 0 Z M 3.59375 0 "/></g></g></g><g fill="#fafdfb" fill-opacity="1"><g transform="translate(188.069552, 354.08201)"><g><path d="M 3.3125 0 L 3.3125 -19.546875 L 6.015625 -19.546875 L 6.296875 -16.734375 L 6.40625 -16.734375 C 7.34375 -17.648438 8.335938 -18.429688 9.390625 -19.078125 C 10.453125 -19.722656 11.640625 -20.046875 12.953125 -20.046875 C 15.023438 -20.046875 16.539062 -19.390625 17.5 -18.078125 C 18.457031 -16.773438 18.9375 -14.878906 18.9375 -12.390625 L 18.9375 0 L 15.65625 0 L 15.65625 -11.953125 C 15.65625 -13.796875 15.359375 -15.125 14.765625 -15.9375 C 14.179688 -16.757812 13.242188 -17.171875 11.953125 -17.171875 C 10.941406 -17.171875 10.039062 -16.914062 9.25 -16.40625 C 8.457031 -15.90625 7.570312 -15.164062 6.59375 -14.1875 L 6.59375 0 Z M 3.3125 0 "/></g></g></g><g fill="#fafdfb" fill-opacity="1"><g transform="translate(212.794385, 354.08201)"><g><path d="M 9.46875 0.46875 C 7.382812 0.46875 5.929688 -0.128906 5.109375 -1.328125 C 4.296875 -2.523438 3.890625 -4.097656 3.890625 -6.046875 L 3.890625 -16.890625 L 0.96875 -16.890625 L 0.96875 -19.375 L 4.03125 -19.546875 L 4.421875 -25.0625 L 7.15625 -25.0625 L 7.15625 -19.546875 L 12.453125 -19.546875 L 12.453125 -16.890625 L 7.15625 -16.890625 L 7.15625 -5.96875 C 7.15625 -4.769531 7.378906 -3.84375 7.828125 -3.1875 C 8.273438 -2.53125 9.0625 -2.203125 10.1875 -2.203125 C 10.519531 -2.203125 10.894531 -2.253906 11.3125 -2.359375 C 11.738281 -2.460938 12.109375 -2.578125 12.421875 -2.703125 L 13.0625 -0.25 C 12.507812 -0.0820312 11.921875 0.078125 11.296875 0.234375 C 10.679688 0.390625 10.070312 0.46875 9.46875 0.46875 Z M 9.46875 0.46875 "/></g></g></g><g fill="#fafdfb" fill-opacity="1"><g transform="translate(229.097957, 354.08201)"><g><path d="M 11.203125 0.46875 C 9.472656 0.46875 7.898438 0.0664062 6.484375 -0.734375 C 5.066406 -1.535156 3.9375 -2.703125 3.09375 -4.234375 C 2.257812 -5.773438 1.84375 -7.613281 1.84375 -9.75 C 1.84375 -11.863281 2.257812 -13.6875 3.09375 -15.21875 C 3.9375 -16.757812 5.03125 -17.945312 6.375 -18.78125 C 7.71875 -19.625 9.144531 -20.046875 10.65625 -20.046875 C 13.15625 -20.046875 15.078125 -19.210938 16.421875 -17.546875 C 17.765625 -15.878906 18.4375 -13.65625 18.4375 -10.875 C 18.4375 -10.507812 18.421875 -10.164062 18.390625 -9.84375 C 18.367188 -9.519531 18.332031 -9.238281 18.28125 -9 L 5.109375 -9 C 5.234375 -6.914062 5.878906 -5.253906 7.046875 -4.015625 C 8.222656 -2.773438 9.738281 -2.15625 11.59375 -2.15625 C 12.550781 -2.15625 13.425781 -2.289062 14.21875 -2.5625 C 15.007812 -2.84375 15.765625 -3.222656 16.484375 -3.703125 L 17.671875 -1.546875 C 16.804688 -0.992188 15.847656 -0.519531 14.796875 -0.125 C 13.742188 0.269531 12.546875 0.46875 11.203125 0.46875 Z M 5.078125 -11.375 L 15.546875 -11.375 C 15.546875 -13.34375 15.117188 -14.84375 14.265625 -15.875 C 13.421875 -16.90625 12.226562 -17.421875 10.6875 -17.421875 C 9.300781 -17.421875 8.066406 -16.890625 6.984375 -15.828125 C 5.898438 -14.773438 5.265625 -13.289062 5.078125 -11.375 Z M 5.078125 -11.375 "/></g></g></g><g fill="#fafdfb" fill-opacity="1"><g transform="translate(251.771459, 354.08201)"><g><path d="M 3.3125 0 L 3.3125 -19.546875 L 6.015625 -19.546875 L 6.296875 -15.984375 L 6.40625 -15.984375 C 7.101562 -17.234375 7.925781 -18.222656 8.875 -18.953125 C 9.820312 -19.679688 10.847656 -20.046875 11.953125 -20.046875 C 12.796875 -20.046875 13.492188 -19.90625 14.046875 -19.625 L 13.421875 -16.734375 C 12.867188 -16.953125 12.234375 -17.0625 11.515625 -17.0625 C 10.703125 -17.0625 9.835938 -16.726562 8.921875 -16.0625 C 8.015625 -15.40625 7.238281 -14.238281 6.59375 -12.5625 L 6.59375 0 Z M 3.3125 0 "/></g></g></g><g fill="#fafdfb" fill-opacity="1"><g transform="translate(268.470905, 354.08201)"><g><path d="M 7.8125 0.46875 C 6.175781 0.46875 4.8125 -0.015625 3.71875 -0.984375 C 2.632812 -1.960938 2.09375 -3.328125 2.09375 -5.078125 C 2.09375 -7.210938 3.054688 -8.847656 4.984375 -9.984375 C 6.921875 -11.128906 9.960938 -11.929688 14.109375 -12.390625 C 14.109375 -13.222656 13.992188 -14.015625 13.765625 -14.765625 C 13.535156 -15.523438 13.132812 -16.140625 12.5625 -16.609375 C 11.988281 -17.078125 11.160156 -17.3125 10.078125 -17.3125 C 8.953125 -17.3125 7.882812 -17.09375 6.875 -16.65625 C 5.863281 -16.226562 4.976562 -15.753906 4.21875 -15.234375 L 2.921875 -17.5 C 3.828125 -18.070312 4.945312 -18.640625 6.28125 -19.203125 C 7.613281 -19.765625 9.0625 -20.046875 10.625 -20.046875 C 13 -20.046875 14.71875 -19.3125 15.78125 -17.84375 C 16.851562 -16.382812 17.390625 -14.445312 17.390625 -12.03125 L 17.390625 0 L 14.6875 0 L 14.40625 -2.34375 L 14.296875 -2.34375 C 13.359375 -1.570312 12.34375 -0.910156 11.25 -0.359375 C 10.15625 0.191406 9.007812 0.46875 7.8125 0.46875 Z M 8.75 -2.15625 C 9.707031 -2.15625 10.597656 -2.375 11.421875 -2.8125 C 12.253906 -3.257812 13.148438 -3.90625 14.109375 -4.75 L 14.109375 -10.21875 C 11.929688 -9.957031 10.191406 -9.601562 8.890625 -9.15625 C 7.597656 -8.71875 6.675781 -8.171875 6.125 -7.515625 C 5.570312 -6.867188 5.296875 -6.128906 5.296875 -5.296875 C 5.296875 -4.191406 5.628906 -3.390625 6.296875 -2.890625 C 6.972656 -2.398438 7.789062 -2.15625 8.75 -2.15625 Z M 8.75 -2.15625 "/></g></g></g><g fill="#fafdfb" fill-opacity="1"><g transform="translate(291.50429, 354.08201)"><g><path d="M 11.015625 0.46875 C 9.285156 0.46875 7.726562 0.0664062 6.34375 -0.734375 C 4.96875 -1.535156 3.875 -2.695312 3.0625 -4.21875 C 2.25 -5.75 1.84375 -7.59375 1.84375 -9.75 C 1.84375 -11.9375 2.28125 -13.789062 3.15625 -15.3125 C 4.03125 -16.84375 5.1875 -18.015625 6.625 -18.828125 C 8.0625 -19.640625 9.609375 -20.046875 11.265625 -20.046875 C 12.535156 -20.046875 13.632812 -19.816406 14.5625 -19.359375 C 15.488281 -18.910156 16.296875 -18.375 16.984375 -17.75 L 15.296875 -15.59375 C 14.722656 -16.09375 14.125 -16.503906 13.5 -16.828125 C 12.875 -17.148438 12.175781 -17.3125 11.40625 -17.3125 C 10.226562 -17.3125 9.171875 -16.992188 8.234375 -16.359375 C 7.304688 -15.722656 6.578125 -14.84375 6.046875 -13.71875 C 5.515625 -12.59375 5.25 -11.269531 5.25 -9.75 C 5.25 -8.269531 5.5 -6.960938 6 -5.828125 C 6.507812 -4.703125 7.21875 -3.828125 8.125 -3.203125 C 9.039062 -2.578125 10.097656 -2.265625 11.296875 -2.265625 C 12.210938 -2.265625 13.0625 -2.453125 13.84375 -2.828125 C 14.625 -3.203125 15.3125 -3.664062 15.90625 -4.21875 L 17.359375 -2.015625 C 16.460938 -1.222656 15.472656 -0.609375 14.390625 -0.171875 C 13.316406 0.253906 12.191406 0.46875 11.015625 0.46875 Z M 11.015625 0.46875 "/></g></g></g><g fill="#fafdfb" fill-opacity="1"><g transform="translate(312.558304, 354.08201)"><g><path d="M 9.46875 0.46875 C 7.382812 0.46875 5.929688 -0.128906 5.109375 -1.328125 C 4.296875 -2.523438 3.890625 -4.097656 3.890625 -6.046875 L 3.890625 -16.890625 L 0.96875 -16.890625 L 0.96875 -19.375 L 4.03125 -19.546875 L 4.421875 -25.0625 L 7.15625 -25.0625 L 7.15625 -19.546875 L 12.453125 -19.546875 L 12.453125 -16.890625 L 7.15625 -16.890625 L 7.15625 -5.96875 C 7.15625 -4.769531 7.378906 -3.84375 7.828125 -3.1875 C 8.273438 -2.53125 9.0625 -2.203125 10.1875 -2.203125 C 10.519531 -2.203125 10.894531 -2.253906 11.3125 -2.359375 C 11.738281 -2.460938 12.109375 -2.578125 12.421875 -2.703125 L 13.0625 -0.25 C 12.507812 -0.0820312 11.921875 0.078125 11.296875 0.234375 C 10.679688 0.390625 10.070312 0.46875 9.46875 0.46875 Z M 9.46875 0.46875 "/></g></g></g><g fill="#fafdfb" fill-opacity="1"><g transform="translate(328.861876, 354.08201)"><g><path d="M 3.3125 0 L 3.3125 -19.546875 L 6.59375 -19.546875 L 6.59375 0 Z M 4.96875 -23.578125 C 4.320312 -23.578125 3.789062 -23.773438 3.375 -24.171875 C 2.96875 -24.566406 2.765625 -25.101562 2.765625 -25.78125 C 2.765625 -26.40625 2.96875 -26.914062 3.375 -27.3125 C 3.789062 -27.707031 4.320312 -27.90625 4.96875 -27.90625 C 5.613281 -27.90625 6.140625 -27.707031 6.546875 -27.3125 C 6.953125 -26.914062 7.15625 -26.40625 7.15625 -25.78125 C 7.15625 -25.101562 6.953125 -24.566406 6.546875 -24.171875 C 6.140625 -23.773438 5.613281 -23.578125 4.96875 -23.578125 Z M 4.96875 -23.578125 "/></g></g></g><g fill="#fafdfb" fill-opacity="1"><g transform="translate(341.494641, 354.08201)"><g><path d="M 7.53125 0 L 0.46875 -19.546875 L 3.890625 -19.546875 L 7.5625 -8.421875 C 7.875 -7.460938 8.175781 -6.488281 8.46875 -5.5 C 8.769531 -4.519531 9.078125 -3.570312 9.390625 -2.65625 L 9.546875 -2.65625 C 9.859375 -3.570312 10.160156 -4.519531 10.453125 -5.5 C 10.753906 -6.488281 11.050781 -7.460938 11.34375 -8.421875 L 15.046875 -19.546875 L 18.28125 -19.546875 L 11.34375 0 Z M 7.53125 0 "/></g></g></g><g fill="#fafdfb" fill-opacity="1"><g transform="translate(362.98051, 354.08201)"><g><path d="M 11.203125 0.46875 C 9.472656 0.46875 7.898438 0.0664062 6.484375 -0.734375 C 5.066406 -1.535156 3.9375 -2.703125 3.09375 -4.234375 C 2.257812 -5.773438 1.84375 -7.613281 1.84375 -9.75 C 1.84375 -11.863281 2.257812 -13.6875 3.09375 -15.21875 C 3.9375 -16.757812 5.03125 -17.945312 6.375 -18.78125 C 7.71875 -19.625 9.144531 -20.046875 10.65625 -20.046875 C 13.15625 -20.046875 15.078125 -19.210938 16.421875 -17.546875 C 17.765625 -15.878906 18.4375 -13.65625 18.4375 -10.875 C 18.4375 -10.507812 18.421875 -10.164062 18.390625 -9.84375 C 18.367188 -9.519531 18.332031 -9.238281 18.28125 -9 L 5.109375 -9 C 5.234375 -6.914062 5.878906 -5.253906 7.046875 -4.015625 C 8.222656 -2.773438 9.738281 -2.15625 11.59375 -2.15625 C 12.550781 -2.15625 13.425781 -2.289062 14.21875 -2.5625 C 15.007812 -2.84375 15.765625 -3.222656 16.484375 -3.703125 L 17.671875 -1.546875 C 16.804688 -0.992188 15.847656 -0.519531 14.796875 -0.125 C 13.742188 0.269531 12.546875 0.46875 11.203125 0.46875 Z M 5.078125 -11.375 L 15.546875 -11.375 C 15.546875 -13.34375 15.117188 -14.84375 14.265625 -15.875 C 13.421875 -16.90625 12.226562 -17.421875 10.6875 -17.421875 C 9.300781 -17.421875 8.066406 -16.890625 6.984375 -15.828125 C 5.898438 -14.773438 5.265625 -13.289062 5.078125 -11.375 Z M 5.078125 -11.375 "/></g></g></g><g fill="#fafdfb" fill-opacity="1"><g transform="translate(385.654, 354.08201)"><g/></g></g><g fill="#fafdfb" fill-opacity="1"><g transform="translate(396.451362, 354.08201)"><g><path d="M 8.171875 -14.765625 L 6.875 -10.734375 L 14.875 -10.734375 L 13.609375 -14.765625 C 13.128906 -16.242188 12.671875 -17.71875 12.234375 -19.1875 C 11.804688 -20.65625 11.375 -22.15625 10.9375 -23.6875 L 10.796875 -23.6875 C 10.390625 -22.15625 9.96875 -20.65625 9.53125 -19.1875 C 9.101562 -17.71875 8.648438 -16.242188 8.171875 -14.765625 Z M 0.109375 0 L 9.078125 -26.421875 L 12.78125 -26.421875 L 21.75 0 L 18.21875 0 L 15.703125 -8.0625 L 6.046875 -8.0625 L 3.484375 0 Z M 0.109375 0 "/></g></g></g><g fill="#fafdfb" fill-opacity="1"><g transform="translate(421.03224, 354.08201)"><g><path d="M 3.3125 0 L 3.3125 -19.546875 L 6.015625 -19.546875 L 6.296875 -16.734375 L 6.40625 -16.734375 C 7.34375 -17.648438 8.335938 -18.429688 9.390625 -19.078125 C 10.453125 -19.722656 11.640625 -20.046875 12.953125 -20.046875 C 15.023438 -20.046875 16.539062 -19.390625 17.5 -18.078125 C 18.457031 -16.773438 18.9375 -14.878906 18.9375 -12.390625 L 18.9375 0 L 15.65625 0 L 15.65625 -11.953125 C 15.65625 -13.796875 15.359375 -15.125 14.765625 -15.9375 C 14.179688 -16.757812 13.242188 -17.171875 11.953125 -17.171875 C 10.941406 -17.171875 10.039062 -16.914062 9.25 -16.40625 C 8.457031 -15.90625 7.570312 -15.164062 6.59375 -14.1875 L 6.59375 0 Z M 3.3125 0 "/></g></g></g><g fill="#fafdfb" fill-opacity="1"><g transform="translate(445.757061, 354.08201)"><g><path d="M 3.3125 0 L 3.3125 -19.546875 L 6.59375 -19.546875 L 6.59375 0 Z M 4.96875 -23.578125 C 4.320312 -23.578125 3.789062 -23.773438 3.375 -24.171875 C 2.96875 -24.566406 2.765625 -25.101562 2.765625 -25.78125 C 2.765625 -26.40625 2.96875 -26.914062 3.375 -27.3125 C 3.789062 -27.707031 4.320312 -27.90625 4.96875 -27.90625 C 5.613281 -27.90625 6.140625 -27.707031 6.546875 -27.3125 C 6.953125 -26.914062 7.15625 -26.40625 7.15625 -25.78125 C 7.15625 -25.101562 6.953125 -24.566406 6.546875 -24.171875 C 6.140625 -23.773438 5.613281 -23.578125 4.96875 -23.578125 Z M 4.96875 -23.578125 "/></g></g></g><g fill="#fafdfb" fill-opacity="1"><g transform="translate(458.389826, 354.08201)"><g><path d="M 3.3125 0 L 3.3125 -19.546875 L 6.015625 -19.546875 L 6.296875 -16.703125 L 6.40625 -16.703125 C 7.25 -17.640625 8.179688 -18.429688 9.203125 -19.078125 C 10.222656 -19.722656 11.316406 -20.046875 12.484375 -20.046875 C 13.972656 -20.046875 15.148438 -19.707031 16.015625 -19.03125 C 16.878906 -18.363281 17.503906 -17.457031 17.890625 -16.3125 C 18.898438 -17.414062 19.929688 -18.3125 20.984375 -19 C 22.046875 -19.695312 23.164062 -20.046875 24.34375 -20.046875 C 26.351562 -20.046875 27.84375 -19.390625 28.8125 -18.078125 C 29.789062 -16.773438 30.28125 -14.878906 30.28125 -12.390625 L 30.28125 0 L 27 0 L 27 -11.953125 C 27 -13.796875 26.703125 -15.125 26.109375 -15.9375 C 25.523438 -16.757812 24.609375 -17.171875 23.359375 -17.171875 C 21.898438 -17.171875 20.257812 -16.175781 18.4375 -14.1875 L 18.4375 0 L 15.15625 0 L 15.15625 -11.953125 C 15.15625 -13.796875 14.859375 -15.125 14.265625 -15.9375 C 13.679688 -16.757812 12.765625 -17.171875 11.515625 -17.171875 C 10.003906 -17.171875 8.363281 -16.175781 6.59375 -14.1875 L 6.59375 0 Z M 3.3125 0 "/></g></g></g><g fill="#fafdfb" fill-opacity="1"><g transform="translate(494.450935, 354.08201)"><g><path d="M 7.8125 0.46875 C 6.175781 0.46875 4.8125 -0.015625 3.71875 -0.984375 C 2.632812 -1.960938 2.09375 -3.328125 2.09375 -5.078125 C 2.09375 -7.210938 3.054688 -8.847656 4.984375 -9.984375 C 6.921875 -11.128906 9.960938 -11.929688 14.109375 -12.390625 C 14.109375 -13.222656 13.992188 -14.015625 13.765625 -14.765625 C 13.535156 -15.523438 13.132812 -16.140625 12.5625 -16.609375 C 11.988281 -17.078125 11.160156 -17.3125 10.078125 -17.3125 C 8.953125 -17.3125 7.882812 -17.09375 6.875 -16.65625 C 5.863281 -16.226562 4.976562 -15.753906 4.21875 -15.234375 L 2.921875 -17.5 C 3.828125 -18.070312 4.945312 -18.640625 6.28125 -19.203125 C 7.613281 -19.765625 9.0625 -20.046875 10.625 -20.046875 C 13 -20.046875 14.71875 -19.3125 15.78125 -17.84375 C 16.851562 -16.382812 17.390625 -14.445312 17.390625 -12.03125 L 17.390625 0 L 14.6875 0 L 14.40625 -2.34375 L 14.296875 -2.34375 C 13.359375 -1.570312 12.34375 -0.910156 11.25 -0.359375 C 10.15625 0.191406 9.007812 0.46875 7.8125 0.46875 Z M 8.75 -2.15625 C 9.707031 -2.15625 10.597656 -2.375 11.421875 -2.8125 C 12.253906 -3.257812 13.148438 -3.90625 14.109375 -4.75 L 14.109375 -10.21875 C 11.929688 -9.957031 10.191406 -9.601562 8.890625 -9.15625 C 7.597656 -8.71875 6.675781 -8.171875 6.125 -7.515625 C 5.570312 -6.867188 5.296875 -6.128906 5.296875 -5.296875 C 5.296875 -4.191406 5.628906 -3.390625 6.296875 -2.890625 C 6.972656 -2.398438 7.789062 -2.15625 8.75 -2.15625 Z M 8.75 -2.15625 "/></g></g></g><g fill="#fafdfb" fill-opacity="1"><g transform="translate(517.484319, 354.08201)"><g><path d="M 6.765625 0.46875 C 5.546875 0.46875 4.664062 0.09375 4.125 -0.65625 C 3.582031 -1.414062 3.3125 -2.492188 3.3125 -3.890625 L 3.3125 -28.65625 L 6.59375 -28.65625 L 6.59375 -3.671875 C 6.59375 -3.171875 6.6875 -2.8125 6.875 -2.59375 C 7.0625 -2.375 7.28125 -2.265625 7.53125 -2.265625 C 7.625 -2.265625 7.71875 -2.269531 7.8125 -2.28125 C 7.90625 -2.289062 8.035156 -2.3125 8.203125 -2.34375 L 8.671875 0.1875 C 8.429688 0.28125 8.164062 0.347656 7.875 0.390625 C 7.59375 0.441406 7.222656 0.46875 6.765625 0.46875 Z M 6.765625 0.46875 "/></g></g></g><g fill="#fafdfb" fill-opacity="1"><g transform="translate(530.476978, 354.08201)"><g/></g></g><g fill="#fafdfb" fill-opacity="1"><g transform="translate(541.274341, 354.08201)"><g><path d="M 3.59375 0 L 3.59375 -26.421875 L 11.453125 -26.421875 C 13.242188 -26.421875 14.816406 -26.203125 16.171875 -25.765625 C 17.535156 -25.335938 18.597656 -24.648438 19.359375 -23.703125 C 20.128906 -22.753906 20.515625 -21.5 20.515625 -19.9375 C 20.515625 -18.625 20.175781 -17.441406 19.5 -16.390625 C 18.832031 -15.347656 17.890625 -14.625 16.671875 -14.21875 L 16.671875 -14.046875 C 18.234375 -13.734375 19.515625 -13.050781 20.515625 -12 C 21.523438 -10.957031 22.03125 -9.535156 22.03125 -7.734375 C 22.03125 -6.003906 21.601562 -4.570312 20.75 -3.4375 C 19.894531 -2.300781 18.71875 -1.441406 17.21875 -0.859375 C 15.71875 -0.285156 13.988281 0 12.03125 0 Z M 6.953125 -15.15625 L 10.875 -15.15625 C 13.15625 -15.15625 14.785156 -15.550781 15.765625 -16.34375 C 16.753906 -17.132812 17.25 -18.191406 17.25 -19.515625 C 17.25 -21.078125 16.722656 -22.175781 15.671875 -22.8125 C 14.628906 -23.445312 13.078125 -23.765625 11.015625 -23.765625 L 6.953125 -23.765625 Z M 6.953125 -2.65625 L 11.5625 -2.65625 C 13.832031 -2.65625 15.597656 -3.078125 16.859375 -3.921875 C 18.117188 -4.765625 18.75 -6.070312 18.75 -7.84375 C 18.75 -9.476562 18.125 -10.6875 16.875 -11.46875 C 15.632812 -12.25 13.863281 -12.640625 11.5625 -12.640625 L 6.953125 -12.640625 Z M 6.953125 -2.65625 "/></g></g></g><g fill="#fafdfb" fill-opacity="1"><g transform="translate(567.654618, 354.08201)"><g><path d="M 3.3125 0 L 3.3125 -19.546875 L 6.015625 -19.546875 L 6.296875 -15.984375 L 6.40625 -15.984375 C 7.101562 -17.234375 7.925781 -18.222656 8.875 -18.953125 C 9.820312 -19.679688 10.847656 -20.046875 11.953125 -20.046875 C 12.796875 -20.046875 13.492188 -19.90625 14.046875 -19.625 L 13.421875 -16.734375 C 12.867188 -16.953125 12.234375 -17.0625 11.515625 -17.0625 C 10.703125 -17.0625 9.835938 -16.726562 8.921875 -16.0625 C 8.015625 -15.40625 7.238281 -14.238281 6.59375 -12.5625 L 6.59375 0 Z M 3.3125 0 "/></g></g></g><g fill="#fafdfb" fill-opacity="1"><g transform="translate(584.354064, 354.08201)"><g><path d="M 7.8125 0.46875 C 6.175781 0.46875 4.8125 -0.015625 3.71875 -0.984375 C 2.632812 -1.960938 2.09375 -3.328125 2.09375 -5.078125 C 2.09375 -7.210938 3.054688 -8.847656 4.984375 -9.984375 C 6.921875 -11.128906 9.960938 -11.929688 14.109375 -12.390625 C 14.109375 -13.222656 13.992188 -14.015625 13.765625 -14.765625 C 13.535156 -15.523438 13.132812 -16.140625 12.5625 -16.609375 C 11.988281 -17.078125 11.160156 -17.3125 10.078125 -17.3125 C 8.953125 -17.3125 7.882812 -17.09375 6.875 -16.65625 C 5.863281 -16.226562 4.976562 -15.753906 4.21875 -15.234375 L 2.921875 -17.5 C 3.828125 -18.070312 4.945312 -18.640625 6.28125 -19.203125 C 7.613281 -19.765625 9.0625 -20.046875 10.625 -20.046875 C 13 -20.046875 14.71875 -19.3125 15.78125 -17.84375 C 16.851562 -16.382812 17.390625 -14.445312 17.390625 -12.03125 L 17.390625 0 L 14.6875 0 L 14.40625 -2.34375 L 14.296875 -2.34375 C 13.359375 -1.570312 12.34375 -0.910156 11.25 -0.359375 C 10.15625 0.191406 9.007812 0.46875 7.8125 0.46875 Z M 8.75 -2.15625 C 9.707031 -2.15625 10.597656 -2.375 11.421875 -2.8125 C 12.253906 -3.257812 13.148438 -3.90625 14.109375 -4.75 L 14.109375 -10.21875 C 11.929688 -9.957031 10.191406 -9.601562 8.890625 -9.15625 C 7.597656 -8.71875 6.675781 -8.171875 6.125 -7.515625 C 5.570312 -6.867188 5.296875 -6.128906 5.296875 -5.296875 C 5.296875 -4.191406 5.628906 -3.390625 6.296875 -2.890625 C 6.972656 -2.398438 7.789062 -2.15625 8.75 -2.15625 Z M 8.75 -2.15625 "/></g></g></g><g fill="#fafdfb" fill-opacity="1"><g transform="translate(607.387449, 354.08201)"><g><path d="M 11.015625 0.46875 C 9.285156 0.46875 7.726562 0.0664062 6.34375 -0.734375 C 4.96875 -1.535156 3.875 -2.695312 3.0625 -4.21875 C 2.25 -5.75 1.84375 -7.59375 1.84375 -9.75 C 1.84375 -11.9375 2.28125 -13.789062 3.15625 -15.3125 C 4.03125 -16.84375 5.1875 -18.015625 6.625 -18.828125 C 8.0625 -19.640625 9.609375 -20.046875 11.265625 -20.046875 C 12.535156 -20.046875 13.632812 -19.816406 14.5625 -19.359375 C 15.488281 -18.910156 16.296875 -18.375 16.984375 -17.75 L 15.296875 -15.59375 C 14.722656 -16.09375 14.125 -16.503906 13.5 -16.828125 C 12.875 -17.148438 12.175781 -17.3125 11.40625 -17.3125 C 10.226562 -17.3125 9.171875 -16.992188 8.234375 -16.359375 C 7.304688 -15.722656 6.578125 -14.84375 6.046875 -13.71875 C 5.515625 -12.59375 5.25 -11.269531 5.25 -9.75 C 5.25 -8.269531 5.5 -6.960938 6 -5.828125 C 6.507812 -4.703125 7.21875 -3.828125 8.125 -3.203125 C 9.039062 -2.578125 10.097656 -2.265625 11.296875 -2.265625 C 12.210938 -2.265625 13.0625 -2.453125 13.84375 -2.828125 C 14.625 -3.203125 15.3125 -3.664062 15.90625 -4.21875 L 17.359375 -2.015625 C 16.460938 -1.222656 15.472656 -0.609375 14.390625 -0.171875 C 13.316406 0.253906 12.191406 0.46875 11.015625 0.46875 Z M 11.015625 0.46875 "/></g></g></g><g fill="#fafdfb" fill-opacity="1"><g transform="translate(628.441463, 354.08201)"><g><path d="M 11.203125 0.46875 C 9.472656 0.46875 7.898438 0.0664062 6.484375 -0.734375 C 5.066406 -1.535156 3.9375 -2.703125 3.09375 -4.234375 C 2.257812 -5.773438 1.84375 -7.613281 1.84375 -9.75 C 1.84375 -11.863281 2.257812 -13.6875 3.09375 -15.21875 C 3.9375 -16.757812 5.03125 -17.945312 6.375 -18.78125 C 7.71875 -19.625 9.144531 -20.046875 10.65625 -20.046875 C 13.15625 -20.046875 15.078125 -19.210938 16.421875 -17.546875 C 17.765625 -15.878906 18.4375 -13.65625 18.4375 -10.875 C 18.4375 -10.507812 18.421875 -10.164062 18.390625 -9.84375 C 18.367188 -9.519531 18.332031 -9.238281 18.28125 -9 L 5.109375 -9 C 5.234375 -6.914062 5.878906 -5.253906 7.046875 -4.015625 C 8.222656 -2.773438 9.738281 -2.15625 11.59375 -2.15625 C 12.550781 -2.15625 13.425781 -2.289062 14.21875 -2.5625 C 15.007812 -2.84375 15.765625 -3.222656 16.484375 -3.703125 L 17.671875 -1.546875 C 16.804688 -0.992188 15.847656 -0.519531 14.796875 -0.125 C 13.742188 0.269531 12.546875 0.46875 11.203125 0.46875 Z M 5.078125 -11.375 L 15.546875 -11.375 C 15.546875 -13.34375 15.117188 -14.84375 14.265625 -15.875 C 13.421875 -16.90625 12.226562 -17.421875 10.6875 -17.421875 C 9.300781 -17.421875 8.066406 -16.890625 6.984375 -15.828125 C 5.898438 -14.773438 5.265625 -13.289062 5.078125 -11.375 Z M 5.078125 -11.375 "/></g></g></g><g fill="#fafdfb" fill-opacity="1"><g transform="translate(651.114953, 354.08201)"><g><path d="M 6.765625 0.46875 C 5.546875 0.46875 4.664062 0.09375 4.125 -0.65625 C 3.582031 -1.414062 3.3125 -2.492188 3.3125 -3.890625 L 3.3125 -28.65625 L 6.59375 -28.65625 L 6.59375 -3.671875 C 6.59375 -3.171875 6.6875 -2.8125 6.875 -2.59375 C 7.0625 -2.375 7.28125 -2.265625 7.53125 -2.265625 C 7.625 -2.265625 7.71875 -2.269531 7.8125 -2.28125 C 7.90625 -2.289062 8.035156 -2.3125 8.203125 -2.34375 L 8.671875 0.1875 C 8.429688 0.28125 8.164062 0.347656 7.875 0.390625 C 7.59375 0.441406 7.222656 0.46875 6.765625 0.46875 Z M 6.765625 0.46875 "/></g></g></g><g fill="#fafdfb" fill-opacity="1"><g transform="translate(664.107612, 354.08201)"><g><path d="M 11.203125 0.46875 C 9.472656 0.46875 7.898438 0.0664062 6.484375 -0.734375 C 5.066406 -1.535156 3.9375 -2.703125 3.09375 -4.234375 C 2.257812 -5.773438 1.84375 -7.613281 1.84375 -9.75 C 1.84375 -11.863281 2.257812 -13.6875 3.09375 -15.21875 C 3.9375 -16.757812 5.03125 -17.945312 6.375 -18.78125 C 7.71875 -19.625 9.144531 -20.046875 10.65625 -20.046875 C 13.15625 -20.046875 15.078125 -19.210938 16.421875 -17.546875 C 17.765625 -15.878906 18.4375 -13.65625 18.4375 -10.875 C 18.4375 -10.507812 18.421875 -10.164062 18.390625 -9.84375 C 18.367188 -9.519531 18.332031 -9.238281 18.28125 -9 L 5.109375 -9 C 5.234375 -6.914062 5.878906 -5.253906 7.046875 -4.015625 C 8.222656 -2.773438 9.738281 -2.15625 11.59375 -2.15625 C 12.550781 -2.15625 13.425781 -2.289062 14.21875 -2.5625 C 15.007812 -2.84375 15.765625 -3.222656 16.484375 -3.703125 L 17.671875 -1.546875 C 16.804688 -0.992188 15.847656 -0.519531 14.796875 -0.125 C 13.742188 0.269531 12.546875 0.46875 11.203125 0.46875 Z M 5.078125 -11.375 L 15.546875 -11.375 C 15.546875 -13.34375 15.117188 -14.84375 14.265625 -15.875 C 13.421875 -16.90625 12.226562 -17.421875 10.6875 -17.421875 C 9.300781 -17.421875 8.066406 -16.890625 6.984375 -15.828125 C 5.898438 -14.773438 5.265625 -13.289062 5.078125 -11.375 Z M 5.078125 -11.375 "/></g></g></g><g fill="#fafdfb" fill-opacity="1"><g transform="translate(686.781102, 354.08201)"><g><path d="M 9.46875 0.46875 C 7.382812 0.46875 5.929688 -0.128906 5.109375 -1.328125 C 4.296875 -2.523438 3.890625 -4.097656 3.890625 -6.046875 L 3.890625 -16.890625 L 0.96875 -16.890625 L 0.96875 -19.375 L 4.03125 -19.546875 L 4.421875 -25.0625 L 7.15625 -25.0625 L 7.15625 -19.546875 L 12.453125 -19.546875 L 12.453125 -16.890625 L 7.15625 -16.890625 L 7.15625 -5.96875 C 7.15625 -4.769531 7.378906 -3.84375 7.828125 -3.1875 C 8.273438 -2.53125 9.0625 -2.203125 10.1875 -2.203125 C 10.519531 -2.203125 10.894531 -2.253906 11.3125 -2.359375 C 11.738281 -2.460938 12.109375 -2.578125 12.421875 -2.703125 L 13.0625 -0.25 C 12.507812 -0.0820312 11.921875 0.078125 11.296875 0.234375 C 10.679688 0.390625 10.070312 0.46875 9.46875 0.46875 Z M 9.46875 0.46875 "/></g></g></g><g fill="#fafdfb" fill-opacity="1"><g transform="translate(703.084674, 354.08201)"><g><path d="M 8.421875 0.46875 C 7.035156 0.46875 5.703125 0.210938 4.421875 -0.296875 C 3.148438 -0.816406 2.046875 -1.460938 1.109375 -2.234375 L 2.734375 -4.390625 C 3.578125 -3.722656 4.457031 -3.171875 5.375 -2.734375 C 6.300781 -2.304688 7.351562 -2.09375 8.53125 -2.09375 C 9.820312 -2.09375 10.785156 -2.390625 11.421875 -2.984375 C 12.066406 -3.585938 12.390625 -4.304688 12.390625 -5.140625 C 12.390625 -5.816406 12.164062 -6.375 11.71875 -6.8125 C 11.269531 -7.257812 10.703125 -7.644531 10.015625 -7.96875 C 9.335938 -8.289062 8.640625 -8.585938 7.921875 -8.859375 C 7.003906 -9.191406 6.109375 -9.585938 5.234375 -10.046875 C 4.359375 -10.503906 3.632812 -11.085938 3.0625 -11.796875 C 2.488281 -12.503906 2.203125 -13.410156 2.203125 -14.515625 C 2.203125 -15.546875 2.46875 -16.476562 3 -17.3125 C 3.539062 -18.15625 4.316406 -18.820312 5.328125 -19.3125 C 6.335938 -19.800781 7.550781 -20.046875 8.96875 -20.046875 C 10.164062 -20.046875 11.285156 -19.828125 12.328125 -19.390625 C 13.367188 -18.960938 14.265625 -18.453125 15.015625 -17.859375 L 13.421875 -15.734375 C 12.753906 -16.234375 12.066406 -16.644531 11.359375 -16.96875 C 10.648438 -17.289062 9.863281 -17.453125 9 -17.453125 C 7.75 -17.453125 6.828125 -17.175781 6.234375 -16.625 C 5.648438 -16.070312 5.359375 -15.414062 5.359375 -14.65625 C 5.359375 -14.03125 5.554688 -13.519531 5.953125 -13.125 C 6.347656 -12.726562 6.867188 -12.390625 7.515625 -12.109375 C 8.171875 -11.835938 8.859375 -11.554688 9.578125 -11.265625 C 10.535156 -10.910156 11.46875 -10.507812 12.375 -10.0625 C 13.289062 -9.613281 14.046875 -9.023438 14.640625 -8.296875 C 15.242188 -7.566406 15.546875 -6.578125 15.546875 -5.328125 C 15.546875 -4.273438 15.269531 -3.304688 14.71875 -2.421875 C 14.164062 -1.546875 13.363281 -0.84375 12.3125 -0.3125 C 11.257812 0.207031 9.960938 0.46875 8.421875 0.46875 Z M 8.421875 0.46875 "/></g></g></g></svg>