<svg xmlns="http://www.w3.org/2000/svg" xmlns:xlink="http://www.w3.org/1999/xlink" width="1080" zoomAndPan="magnify" viewBox="0 0 810 1439.999935" height="1920" preserveAspectRatio="xMidYMid meet" version="1.0"><defs><g/></defs><path stroke-linecap="butt" transform="matrix(0.75, 0, 0, 0.75, 81.000011, 251.845096)" fill="none" stroke-linejoin="miter" d="M -0.000015 3.998206 L 864.00006 3.998206 " stroke="#ffffff" stroke-width="8" stroke-opacity="1" stroke-miterlimit="4"/><g fill="#fafdfb" fill-opacity="1"><g transform="translate(81.000011, 203.863762)"><g><path d="M 0.21875 -72 L 6.546875 -72 L 34.625 -8.921875 C 35.0625 -7.921875 35.519531 -7.421875 36 -7.421875 C 36.53125 -7.421875 36.960938 -7.992188 37.296875 -9.140625 L 44.359375 -33.703125 C 44.640625 -34.753906 44.742188 -35.90625 44.671875 -37.15625 C 44.597656 -38.40625 44.347656 -39.507812 43.921875 -40.46875 L 29.8125 -72 L 36.140625 -72 L 46.375 -49.109375 C 46.800781 -48.140625 47.226562 -47.65625 47.65625 -47.65625 C 48.144531 -47.65625 48.53125 -48.1875 48.8125 -49.25 L 55.375 -72 L 61.703125 -72 L 51.625 -43.421875 C 51.289062 -42.410156 51.132812 -41.28125 51.15625 -40.03125 C 51.175781 -38.78125 51.40625 -37.675781 51.84375 -36.71875 L 64.21875 -8.921875 C 64.65625 -7.921875 65.113281 -7.421875 65.59375 -7.421875 C 66.125 -7.421875 66.554688 -7.992188 66.890625 -9.140625 L 84.953125 -72 L 91.296875 -72 L 65.8125 0 L 61.921875 0 L 49.03125 -28.796875 C 48.601562 -29.753906 48.125 -30.234375 47.59375 -30.234375 C 47.15625 -30.234375 46.75 -29.734375 46.375 -28.734375 L 36.21875 0 L 32.328125 0 Z M 0.21875 -72 "/></g></g></g><g fill="#fafdfb" fill-opacity="1"><g transform="translate(173.720996, 203.863762)"><g><path d="M 10.515625 0 L 4.75 0 L 4.75 -49.828125 L 10.515625 -49.828125 Z M 0.9375 -61.265625 C 0.695312 -61.367188 0.578125 -61.476562 0.578125 -61.59375 C 0.578125 -61.71875 0.695312 -61.800781 0.9375 -61.84375 C 2.28125 -62.28125 3.332031 -62.722656 4.09375 -63.171875 C 4.863281 -63.628906 5.488281 -64.289062 5.96875 -65.15625 C 6.457031 -66.019531 6.914062 -67.222656 7.34375 -68.765625 C 7.4375 -69.003906 7.578125 -69.125 7.765625 -69.125 C 7.960938 -69.125 8.085938 -69.003906 8.140625 -68.765625 C 8.566406 -67.222656 9.019531 -66.019531 9.5 -65.15625 C 9.976562 -64.289062 10.601562 -63.617188 11.375 -63.140625 C 12.144531 -62.660156 13.203125 -62.226562 14.546875 -61.84375 C 14.785156 -61.800781 14.90625 -61.71875 14.90625 -61.59375 C 14.90625 -61.476562 14.785156 -61.367188 14.546875 -61.265625 C 13.242188 -60.835938 12.171875 -60.394531 11.328125 -59.9375 C 10.492188 -59.476562 9.835938 -58.828125 9.359375 -57.984375 C 8.878906 -57.148438 8.472656 -55.914062 8.140625 -54.28125 C 8.085938 -54.09375 7.953125 -54 7.734375 -54 C 7.523438 -54 7.394531 -54.09375 7.34375 -54.28125 C 6.914062 -55.914062 6.457031 -57.148438 5.96875 -57.984375 C 5.488281 -58.828125 4.863281 -59.476562 4.09375 -59.9375 C 3.332031 -60.394531 2.28125 -60.835938 0.9375 -61.265625 Z M 0.9375 -61.265625 "/></g></g></g><g fill="#fafdfb" fill-opacity="1"><g transform="translate(189.198489, 203.863762)"><g><path d="M 10.796875 0 L 5.046875 0 L 5.046875 -72 L 10.796875 -72 Z M 10.796875 0 "/></g></g></g><g fill="#fafdfb" fill-opacity="1"><g transform="translate(205.03592, 203.863762)"><g><path d="M 3.59375 -26.421875 C 3.59375 -31.128906 4.410156 -35.351562 6.046875 -39.09375 C 7.679688 -42.84375 10.066406 -45.804688 13.203125 -47.984375 C 16.347656 -50.171875 20.179688 -51.265625 24.703125 -51.265625 C 28.628906 -51.265625 31.769531 -50.734375 34.125 -49.671875 C 36.476562 -48.617188 38.207031 -47.539062 39.3125 -46.4375 C 40.46875 -45.289062 41.378906 -44.71875 42.046875 -44.71875 C 42.910156 -44.71875 43.34375 -45.769531 43.34375 -47.875 L 43.34375 -73.4375 L 48.671875 -73.4375 L 48.671875 0 L 25.703125 0 C 21.960938 0 18.695312 -0.78125 15.90625 -2.34375 C 13.125 -3.90625 10.820312 -5.976562 9 -8.5625 C 7.175781 -11.15625 5.816406 -14.007812 4.921875 -17.125 C 4.035156 -20.25 3.59375 -23.347656 3.59375 -26.421875 Z M 9.4375 -26.359375 C 9.4375 -23.179688 9.84375 -20.117188 10.65625 -17.171875 C 11.46875 -14.222656 12.738281 -11.554688 14.46875 -9.171875 C 16.195312 -6.796875 18.414062 -4.910156 21.125 -3.515625 C 23.84375 -2.128906 27.097656 -1.4375 30.890625 -1.4375 L 39.171875 -1.4375 C 40.273438 -1.4375 41.148438 -1.769531 41.796875 -2.4375 C 42.441406 -3.113281 42.765625 -3.984375 42.765625 -5.046875 L 42.765625 -36.5 C 42.765625 -38.082031 42.570312 -39.332031 42.1875 -40.25 C 41.46875 -41.925781 40.328125 -43.457031 38.765625 -44.84375 C 37.210938 -46.238281 35.378906 -47.359375 33.265625 -48.203125 C 31.148438 -49.046875 28.894531 -49.46875 26.5 -49.46875 C 24 -49.46875 21.703125 -48.84375 19.609375 -47.59375 C 17.523438 -46.34375 15.726562 -44.625 14.21875 -42.4375 C 12.707031 -40.257812 11.53125 -37.789062 10.6875 -35.03125 C 9.851562 -32.269531 9.4375 -29.378906 9.4375 -26.359375 Z M 9.4375 -26.359375 "/></g></g></g><g fill="#fafdfb" fill-opacity="1"><g transform="translate(258.739216, 203.863762)"><g/></g></g><g fill="#fafdfb" fill-opacity="1"><g transform="translate(280.335703, 203.863762)"><g><path d="M 55.65625 0 L 5.765625 0 L 5.765625 -72 L 11.453125 -72 L 11.453125 -6.34375 C 11.453125 -4.414062 11.757812 -3.113281 12.375 -2.4375 C 13 -1.769531 13.960938 -1.4375 15.265625 -1.4375 C 17.898438 -1.4375 20.726562 -1.53125 23.75 -1.71875 C 26.78125 -1.914062 29.867188 -2.171875 33.015625 -2.484375 C 36.160156 -2.796875 39.171875 -3.164062 42.046875 -3.59375 C 44.929688 -4.03125 47.546875 -4.488281 49.890625 -4.96875 C 52.242188 -5.445312 54.164062 -5.925781 55.65625 -6.40625 Z M 55.65625 0 "/></g></g></g><g fill="#fafdfb" fill-opacity="1"><g transform="translate(339.150182, 203.863762)"><g><path d="M 10.515625 0 L 4.75 0 L 4.75 -49.828125 L 10.515625 -49.828125 Z M 0.9375 -61.265625 C 0.695312 -61.367188 0.578125 -61.476562 0.578125 -61.59375 C 0.578125 -61.71875 0.695312 -61.800781 0.9375 -61.84375 C 2.28125 -62.28125 3.332031 -62.722656 4.09375 -63.171875 C 4.863281 -63.628906 5.488281 -64.289062 5.96875 -65.15625 C 6.457031 -66.019531 6.914062 -67.222656 7.34375 -68.765625 C 7.4375 -69.003906 7.578125 -69.125 7.765625 -69.125 C 7.960938 -69.125 8.085938 -69.003906 8.140625 -68.765625 C 8.566406 -67.222656 9.019531 -66.019531 9.5 -65.15625 C 9.976562 -64.289062 10.601562 -63.617188 11.375 -63.140625 C 12.144531 -62.660156 13.203125 -62.226562 14.546875 -61.84375 C 14.785156 -61.800781 14.90625 -61.71875 14.90625 -61.59375 C 14.90625 -61.476562 14.785156 -61.367188 14.546875 -61.265625 C 13.242188 -60.835938 12.171875 -60.394531 11.328125 -59.9375 C 10.492188 -59.476562 9.835938 -58.828125 9.359375 -57.984375 C 8.878906 -57.148438 8.472656 -55.914062 8.140625 -54.28125 C 8.085938 -54.09375 7.953125 -54 7.734375 -54 C 7.523438 -54 7.394531 -54.09375 7.34375 -54.28125 C 6.914062 -55.914062 6.457031 -57.148438 5.96875 -57.984375 C 5.488281 -58.828125 4.863281 -59.476562 4.09375 -59.9375 C 3.332031 -60.394531 2.28125 -60.835938 0.9375 -61.265625 Z M 0.9375 -61.265625 "/></g></g></g><g fill="#fafdfb" fill-opacity="1"><g transform="translate(354.627674, 203.863762)"><g><path d="M 5.046875 0 L 5.046875 -49.828125 L 10.796875 -49.828125 L 10.796875 -44.5 C 10.796875 -43.300781 11.015625 -42.703125 11.453125 -42.703125 C 11.734375 -42.703125 12.257812 -43.035156 13.03125 -43.703125 C 15.625 -46.203125 18.382812 -48.085938 21.3125 -49.359375 C 24.238281 -50.628906 27.570312 -51.265625 31.3125 -51.265625 C 34.96875 -51.265625 38.175781 -50.554688 40.9375 -49.140625 C 43.695312 -47.722656 45.851562 -45.765625 47.40625 -43.265625 C 48.96875 -40.773438 49.75 -37.894531 49.75 -34.625 L 49.75 0 L 43.984375 0 L 43.984375 -34.484375 C 43.984375 -37.890625 43.335938 -40.722656 42.046875 -42.984375 C 40.753906 -45.242188 39.050781 -46.945312 36.9375 -48.09375 C 34.820312 -49.25 32.566406 -49.828125 30.171875 -49.828125 C 27.765625 -49.828125 25.410156 -49.367188 23.109375 -48.453125 C 20.804688 -47.546875 18.726562 -46.3125 16.875 -44.75 C 15.03125 -43.1875 13.554688 -41.421875 12.453125 -39.453125 C 11.347656 -37.484375 10.796875 -35.445312 10.796875 -33.34375 L 10.796875 0 Z M 5.046875 0 "/></g></g></g><g fill="#fafdfb" fill-opacity="1"><g transform="translate(409.410811, 203.863762)"><g><path d="M 5.046875 0 L 5.046875 -72 L 10.796875 -72 L 10.796875 -31.3125 C 10.796875 -29.925781 11.207031 -29.234375 12.03125 -29.234375 C 12.457031 -29.234375 12.984375 -29.472656 13.609375 -29.953125 L 38.65625 -49.828125 L 46.15625 -49.828125 C 43.363281 -48.003906 40.800781 -46.347656 38.46875 -44.859375 C 36.144531 -43.367188 33.851562 -41.898438 31.59375 -40.453125 C 29.34375 -39.015625 26.875 -37.382812 24.1875 -35.5625 C 23.28125 -34.9375 22.765625 -34.179688 22.640625 -33.296875 C 22.523438 -32.410156 22.78125 -31.535156 23.40625 -30.671875 L 45.9375 0 L 38.65625 0 L 18.578125 -27.359375 C 17.859375 -28.367188 16.921875 -28.875 15.765625 -28.875 C 14.804688 -28.875 13.941406 -28.515625 13.171875 -27.796875 C 12.410156 -27.078125 11.820312 -26.195312 11.40625 -25.15625 C 11 -24.125 10.796875 -23.175781 10.796875 -22.3125 L 10.796875 0 Z M 5.046875 0 "/></g></g></g></svg>